<?xml version="1.0" encoding="UTF-8" standalone="no"?>
<!-- Created with Inkscape (http://www.inkscape.org/) -->
<svg
   xmlns:dc="http://purl.org/dc/elements/1.1/"
   xmlns:cc="http://creativecommons.org/ns#"
   xmlns:rdf="http://www.w3.org/1999/02/22-rdf-syntax-ns#"
   xmlns:svg="http://www.w3.org/2000/svg"
   xmlns="http://www.w3.org/2000/svg"
   xmlns:sodipodi="http://sodipodi.sourceforge.net/DTD/sodipodi-0.dtd"
   xmlns:inkscape="http://www.inkscape.org/namespaces/inkscape"
   id="svg2"
   sodipodi:version="0.32"
   inkscape:version="0.46"
   width="990"
   height="765"
   xml:space="preserve"
   sodipodi:docname="bacs_over_time.svg"
   inkscape:output_extension="org.inkscape.output.svg.inkscape"><metadata
     id="metadata7"><rdf:RDF><cc:Work
         rdf:about=""><dc:format>image/svg+xml</dc:format><dc:type
           rdf:resource="http://purl.org/dc/dcmitype/StillImage" /></cc:Work></rdf:RDF></metadata><defs
     id="defs5"><inkscape:perspective
       sodipodi:type="inkscape:persp3d"
       inkscape:vp_x="0 : 526.18109 : 1"
       inkscape:vp_y="0 : 1000 : 0"
       inkscape:vp_z="744.09448 : 526.18109 : 1"
       inkscape:persp3d-origin="372.04724 : 350.78739 : 1"
       id="perspective9" /><clipPath
       clipPathUnits="userSpaceOnUse"
       id="clipPath19"><path
         d="M 1039.2,1075.2 L 4464,1075.2 L 4464,5913.6 L 1039.2,5913.6 L 1039.2,1075.2 z"
         id="path21" /></clipPath></defs><sodipodi:namedview
     inkscape:window-height="667"
     inkscape:window-width="1134"
     inkscape:pageshadow="2"
     inkscape:pageopacity="0.0"
     guidetolerance="10.0"
     gridtolerance="10.0"
     objecttolerance="10.0"
     borderopacity="1.0"
     bordercolor="#666666"
     pagecolor="#ffffff"
     id="base"
     showgrid="false"
     inkscape:zoom="1"
     inkscape:cx="489.9936"
     inkscape:cy="363.31247"
     inkscape:window-x="49"
     inkscape:window-y="81"
     inkscape:current-layer="g11" /><g
     id="g11"
     inkscape:groupmode="layer"
     inkscape:label="foo"
     transform="matrix(0,1.25,1.25,0,0,0)"><g
       id="g13"
       transform="scale(0.1,0.1)"><g
         id="g15"><g
           id="g17"
           clip-path="url(#clipPath19)"><path
             d="M 4072.811,3148.7203 L 4072.811,1388.586 L 1151.989,1388.586 L 1151.989,4911.211 L 4072.811,4911.211 L 4072.811,3148.7203"
             style="fill:none;stroke:#b3b3b3;stroke-width:2.37804413;stroke-linecap:butt;stroke-linejoin:miter;stroke-miterlimit:10;stroke-dasharray:none;stroke-opacity:1"
             id="path25" /><path
             d="M 4072.8149,4910.2652 L 4072.8149,1411.1851"
             style="fill:none;stroke:#b3b3b3;stroke-width:2.37008667;stroke-linecap:butt;stroke-linejoin:miter;stroke-miterlimit:10;stroke-dasharray:none;stroke-opacity:1"
             id="path27" /><path
             d="M 3655.2107,4910.2652 L 3655.2107,1411.1851"
             style="fill:none;stroke:#b3b3b3;stroke-width:2.37008667;stroke-linecap:butt;stroke-linejoin:miter;stroke-miterlimit:10;stroke-dasharray:none;stroke-opacity:1"
             id="path29" /><path
             d="M 3237.6064,4910.2652 L 3237.6064,1411.1851"
             style="fill:none;stroke:#b3b3b3;stroke-width:2.37008667;stroke-linecap:butt;stroke-linejoin:miter;stroke-miterlimit:10;stroke-dasharray:none;stroke-opacity:1"
             id="path31" /><path
             d="M 2820.0021,4910.2652 L 2820.0021,1411.1851"
             style="fill:none;stroke:#b3b3b3;stroke-width:2.37008667;stroke-linecap:butt;stroke-linejoin:miter;stroke-miterlimit:10;stroke-dasharray:none;stroke-opacity:1"
             id="path33" /><path
             d="M 2402.3979,4910.2652 L 2402.3979,1411.1851"
             style="fill:none;stroke:#b3b3b3;stroke-width:2.37008667;stroke-linecap:butt;stroke-linejoin:miter;stroke-miterlimit:10;stroke-dasharray:none;stroke-opacity:1"
             id="path35" /><path
             d="M 1984.7935,4910.2652 L 1984.7935,1411.1851"
             style="fill:none;stroke:#b3b3b3;stroke-width:2.37008667;stroke-linecap:butt;stroke-linejoin:miter;stroke-miterlimit:10;stroke-dasharray:none;stroke-opacity:1"
             id="path37" /><path
             d="M 1569.5893,4910.2652 L 1569.5893,1411.1851"
             style="fill:none;stroke:#b3b3b3;stroke-width:2.37008667;stroke-linecap:butt;stroke-linejoin:miter;stroke-miterlimit:10;stroke-dasharray:none;stroke-opacity:1"
             id="path39" /><path
             d="M 1151.9851,4910.2652 L 1151.9851,1411.1851"
             style="fill:none;stroke:#b3b3b3;stroke-width:2.37008667;stroke-linecap:butt;stroke-linejoin:miter;stroke-miterlimit:10;stroke-dasharray:none;stroke-opacity:1"
             id="path41" /><g
             id="g43"
             transform="scale(10,10)"><text
               transform="matrix(0,1,1,0,430.56,139.44)"
               id="text45"><tspan
                 style="fill:#000000;fill-opacity:1;fill-rule:nonzero;stroke:none;font-family:Arial;font-variant:normal;font-weight:normal;font-size:7.92;writing-mode:lr;-inkscape-font-specification:Arial"
                 x="0"
                 y="0"
                 id="tspan47"></tspan><tspan
                 style="fill:#000000;fill-opacity:1;fill-rule:nonzero;stroke:none;font-family:Arial;font-variant:normal;font-weight:normal;font-size:7.92;writing-mode:lr;-inkscape-font-specification:Arial"
                 x="98.1602 102.24020938 106.56020902"
                 y="-8.88008"
                 sodipodi:role="line"
                 id="tspan49">만</tspan><tspan
                 style="fill:#000000;fill-opacity:1;fill-rule:nonzero;stroke:none;font-family:Arial;font-variant:normal;font-weight:normal;font-size:7.92;writing-mode:lr;-inkscape-font-specification:Arial"
                 x="200.4002 204.72019964 208.80020902"
                 y="0"
                 sodipodi:role="line"
                 id="tspan51">만</tspan><tspan
                 style="fill:#000000;fill-opacity:1;fill-rule:nonzero;stroke:none;font-family:Arial;font-variant:normal;font-weight:normal;font-size:7.92;writing-mode:lr;-inkscape-font-specification:Arial"
                 x="7.2002 11.28020938"
                 y="-8.88008"
                 sodipodi:role="line"
                 id="tspan53">만</tspan><tspan
                 style="fill:#000000;fill-opacity:1;fill-rule:nonzero;stroke:none;font-family:Arial;font-variant:normal;font-weight:normal;font-size:7.92;writing-mode:lr;-inkscape-font-specification:Arial"
                 x="16.56036 20.64036938"
                 y="0"
                 sodipodi:role="line"
                 id="tspan55">만</tspan><tspan
                 style="fill:#000000;fill-opacity:1;fill-rule:nonzero;stroke:none;font-family:Arial;font-variant:normal;font-weight:normal;font-size:7.92;writing-mode:lr;-inkscape-font-specification:Arial"
                 x="23.76036 27.84036938 32.16036902"
                 y="-8.88008"
                 sodipodi:role="line"
                 id="tspan57">만</tspan><tspan
                 style="fill:#000000;fill-opacity:1;fill-rule:nonzero;stroke:none;font-family:Arial;font-variant:normal;font-weight:normal;font-size:7.92;writing-mode:lr;-inkscape-font-specification:Arial"
                 x="33.12052 37.44051964 41.52052902"
                 y="0"
                 sodipodi:role="line"
                 id="tspan59">만</tspan><tspan
                 style="fill:#000000;fill-opacity:1;fill-rule:nonzero;stroke:none;font-family:Arial;font-variant:normal;font-weight:normal;font-size:7.92;writing-mode:lr;-inkscape-font-specification:Arial"
                 x="42.24044 46.32044938 50.64044902"
                 y="-8.88008"
                 sodipodi:role="line"
                 id="tspan61">만</tspan><tspan
                 style="fill:#000000;fill-opacity:1;fill-rule:nonzero;stroke:none;font-family:Arial;font-variant:normal;font-weight:normal;font-size:7.92;writing-mode:lr;-inkscape-font-specification:Arial"
                 x="51.60021 55.68021938 60.00021902"
                 y="0"
                 sodipodi:role="line"
                 id="tspan63">만</tspan><tspan
                 style="fill:#000000;fill-opacity:1;fill-rule:nonzero;stroke:none;font-family:Arial;font-variant:normal;font-weight:normal;font-size:7.92;writing-mode:lr;-inkscape-font-specification:Arial"
                 x="60.96037 65.28036964 69.36037902"
                 y="-8.88008"
                 sodipodi:role="line"
                 id="tspan65">만</tspan><tspan
                 style="fill:#000000;fill-opacity:1;fill-rule:nonzero;stroke:none;font-family:Arial;font-variant:normal;font-weight:normal;font-size:7.92;writing-mode:lr;-inkscape-font-specification:Arial"
                 x="70.32053 74.64052964 78.72053902"
                 y="0"
                 sodipodi:role="line"
                 id="tspan67">만</tspan><tspan
                 style="fill:#000000;fill-opacity:1;fill-rule:nonzero;stroke:none;font-family:Arial;font-variant:normal;font-weight:normal;font-size:7.92;writing-mode:lr;-inkscape-font-specification:Arial"
                 x="79.44045 83.76044964 87.84045902"
                 y="-8.88008"
                 sodipodi:role="line"
                 id="tspan69">만</tspan><tspan
                 style="fill:#000000;fill-opacity:1;fill-rule:nonzero;stroke:none;font-family:Arial;font-variant:normal;font-weight:normal;font-size:7.92;writing-mode:lr;-inkscape-font-specification:Arial"
                 x="88.80022 93.12021964 97.20022902 107.5206147 111.60062409 115.92062373"
                 y="0"
                 sodipodi:role="line"
                 id="tspan71">만만만</tspan><tspan
                 style="fill:#000000;fill-opacity:1;fill-rule:nonzero;stroke:none;font-family:Arial;font-variant:normal;font-weight:normal;font-size:7.92;writing-mode:lr;-inkscape-font-specification:Arial"
                 x="116.64042 120.72042938 125.04042902"
                 y="-8.88008"
                 sodipodi:role="line"
                 id="tspan73">만</tspan><tspan
                 style="fill:#000000;fill-opacity:1;fill-rule:nonzero;stroke:none;font-family:Arial;font-variant:normal;font-weight:normal;font-size:7.92;writing-mode:lr;-inkscape-font-specification:Arial"
                 x="126.00019 130.08019938 134.40019902"
                 y="0"
                 sodipodi:role="line"
                 id="tspan75">만</tspan><tspan
                 style="fill:#000000;fill-opacity:1;fill-rule:nonzero;stroke:none;font-family:Arial;font-variant:normal;font-weight:normal;font-size:7.92;writing-mode:lr;-inkscape-font-specification:Arial"
                 x="135.36035 139.44035938 143.76035902"
                 y="-8.88008"
                 sodipodi:role="line"
                 id="tspan77">만</tspan><tspan
                 style="fill:#000000;fill-opacity:1;fill-rule:nonzero;stroke:none;font-family:Arial;font-variant:normal;font-weight:normal;font-size:7.92;writing-mode:lr;-inkscape-font-specification:Arial"
                 x="144.72051 149.04050964 153.12051902"
                 y="0"
                 sodipodi:role="line"
                 id="tspan79">만</tspan><tspan
                 style="fill:#000000;fill-opacity:1;fill-rule:nonzero;stroke:none;font-family:Arial;font-variant:normal;font-weight:normal;font-size:7.92;writing-mode:lr;-inkscape-font-specification:Arial"
                 x="153.84043 157.92043938 162.24043902"
                 y="-8.88008"
                 sodipodi:role="line"
                 id="tspan81">만</tspan><tspan
                 style="fill:#000000;fill-opacity:1;fill-rule:nonzero;stroke:none;font-family:Arial;font-variant:normal;font-weight:normal;font-size:7.92;writing-mode:lr;-inkscape-font-specification:Arial"
                 x="163.2002 167.28020938 171.60020902"
                 y="0"
                 sodipodi:role="line"
                 id="tspan83">만</tspan><tspan
                 style="fill:#000000;fill-opacity:1;fill-rule:nonzero;stroke:none;font-family:Arial;font-variant:normal;font-weight:normal;font-size:7.92;writing-mode:lr;-inkscape-font-specification:Arial"
                 x="172.56036 176.88035964 180.96036902"
                 y="-8.88008"
                 sodipodi:role="line"
                 id="tspan85">만</tspan><tspan
                 style="fill:#000000;fill-opacity:1;fill-rule:nonzero;stroke:none;font-family:Arial;font-variant:normal;font-weight:normal;font-size:7.92;writing-mode:lr;-inkscape-font-specification:Arial"
                 x="181.92052 186.24051964 190.32052902"
                 y="0"
                 sodipodi:role="line"
                 id="tspan87">만</tspan><tspan
                 style="fill:#000000;fill-opacity:1;fill-rule:nonzero;stroke:none;font-family:Arial;font-variant:normal;font-weight:normal;font-size:7.92;writing-mode:lr;-inkscape-font-specification:Arial"
                 x="191.04044 195.36043964 199.44044902 209.76037534 213.84038473 218.16038437"
                 y="-8.88008"
                 sodipodi:role="line"
                 id="tspan89">만만만</tspan><tspan
                 style="fill:#000000;fill-opacity:1;fill-rule:nonzero;stroke:none;font-family:Arial;font-variant:normal;font-weight:normal;font-size:7.92;writing-mode:lr;-inkscape-font-specification:Arial"
                 x="219.12054 223.20054938 227.52054902"
                 y="0"
                 sodipodi:role="line"
                 id="tspan91">만</tspan><tspan
                 style="fill:#000000;fill-opacity:1;fill-rule:nonzero;stroke:none;font-family:Arial;font-variant:normal;font-weight:normal;font-size:7.92;writing-mode:lr;-inkscape-font-specification:Arial"
                 x="228.24046 232.32046938 236.64046902"
                 y="-8.88008"
                 sodipodi:role="line"
                 id="tspan93">만</tspan><tspan
                 style="fill:#000000;fill-opacity:1;fill-rule:nonzero;stroke:none;font-family:Arial;font-variant:normal;font-weight:normal;font-size:7.92;writing-mode:lr;-inkscape-font-specification:Arial"
                 x="237.60023 241.68023938 246.00023902"
                 y="0"
                 sodipodi:role="line"
                 id="tspan95">만</tspan><tspan
                 style="fill:#000000;fill-opacity:1;fill-rule:nonzero;stroke:none;font-family:Arial;font-variant:normal;font-weight:normal;font-size:7.92;writing-mode:lr;-inkscape-font-specification:Arial"
                 x="246.96039 251.04039938 255.36039902"
                 y="-8.88008"
                 sodipodi:role="line"
                 id="tspan97">만</tspan><tspan
                 style="fill:#000000;fill-opacity:1;fill-rule:nonzero;stroke:none;font-family:Arial;font-variant:normal;font-weight:normal;font-size:7.92;writing-mode:lr;-inkscape-font-specification:Arial"
                 x="254.16039 258.24039938 262.56039902 266.88039866"
                 y="0"
                 sodipodi:role="line"
                 id="tspan99">만만</tspan><tspan
                 style="fill:#000000;fill-opacity:1;fill-rule:nonzero;stroke:none;font-family:Arial;font-variant:normal;font-weight:normal;font-size:7.92;writing-mode:lr;-inkscape-font-specification:Arial"
                 x="263.28031 267.36031938 271.68029447 276.00031866"
                 y="-8.88008"
                 sodipodi:role="line"
                 id="tspan101">만만</tspan><tspan
                 style="fill:#000000;fill-opacity:1;fill-rule:nonzero;stroke:none;font-family:Arial;font-variant:normal;font-weight:normal;font-size:7.92;writing-mode:lr;-inkscape-font-specification:Arial"
                 x="272.64047 276.72045483 281.04047902 285.36050322"
                 y="0"
                 sodipodi:role="line"
                 id="tspan103">만만</tspan><tspan
                 style="fill:#000000;fill-opacity:1;fill-rule:nonzero;stroke:none;font-family:Arial;font-variant:normal;font-weight:normal;font-size:7.92;writing-mode:lr;-inkscape-font-specification:Arial"
                 x="282.00024 286.08022483 290.40024902 294.72027322"
                 y="-8.88008"
                 sodipodi:role="line"
                 id="tspan105">만만</tspan><tspan
                 style="fill:#000000;fill-opacity:1;fill-rule:nonzero;stroke:none;font-family:Arial;font-variant:normal;font-weight:normal;font-size:7.92;writing-mode:lr;-inkscape-font-specification:Arial"
                 x="291.3604 295.68042419 299.76040902 304.08043322"
                 y="0"
                 sodipodi:role="line"
                 id="tspan107">만만</tspan><tspan
                 style="fill:#000000;fill-opacity:1;fill-rule:nonzero;stroke:none;font-family:Arial;font-variant:normal;font-weight:normal;font-size:7.92;writing-mode:lr;-inkscape-font-specification:Arial"
                 x="300.48032 304.56030483 308.88032902 313.20035322"
                 y="-8.88008"
                 sodipodi:role="line"
                 id="tspan109">만만</tspan><tspan
                 style="fill:#000000;fill-opacity:1;fill-rule:nonzero;stroke:none;font-family:Arial;font-variant:normal;font-weight:normal;font-size:7.92;writing-mode:lr;-inkscape-font-specification:Arial"
                 x="309.84048 314.16050419 318.24048902 322.56051322"
                 y="0"
                 sodipodi:role="line"
                 id="tspan111">만만</tspan><tspan
                 style="fill:#000000;fill-opacity:1;fill-rule:nonzero;stroke:none;font-family:Arial;font-variant:normal;font-weight:normal;font-size:7.92;writing-mode:lr;-inkscape-font-specification:Arial"
                 x="319.20025 323.52027419 327.60025902 331.92028322"
                 y="-8.88008"
                 sodipodi:role="line"
                 id="tspan113">만만</tspan><tspan
                 style="fill:#000000;fill-opacity:1;fill-rule:nonzero;stroke:none;font-family:Arial;font-variant:normal;font-weight:normal;font-size:7.92;writing-mode:lr;-inkscape-font-specification:Arial"
                 x="328.56041 332.64039483 336.96041902 341.28044322"
                 y="0"
                 sodipodi:role="line"
                 id="tspan115">만만</tspan><tspan
                 style="fill:#000000;fill-opacity:1;fill-rule:nonzero;stroke:none;font-family:Arial;font-variant:normal;font-weight:normal;font-size:7.92;writing-mode:lr;-inkscape-font-specification:Arial"
                 x="337.68033 342.00035419 346.08033902 350.40036322"
                 y="-8.88008"
                 sodipodi:role="line"
                 id="tspan117">만만</tspan><tspan
                 style="fill:#000000;fill-opacity:1;fill-rule:nonzero;stroke:none;font-family:Arial;font-variant:normal;font-weight:normal;font-size:7.92;writing-mode:lr;-inkscape-font-specification:Arial"
                 x="347.04049 351.12047483 355.44049902 359.76052322"
                 y="0"
                 sodipodi:role="line"
                 id="tspan119">만만</tspan></text>
</g><path
             d="M 4072.8,1411.171 L 4072.8,4912.479"
             style="fill:none;stroke:#b3b3b3;stroke-width:2.37082887;stroke-linecap:butt;stroke-linejoin:miter;stroke-miterlimit:10;stroke-dasharray:none;stroke-opacity:1"
             id="path1047" /><g
             id="g1049"
             transform="scale(10,10)"><text
               transform="matrix(0,1,1,0,409.92,129.84)"
               id="text1051"><tspan
                 style="fill:#000000;fill-opacity:1;fill-rule:nonzero;stroke:none;font-family:Arial;font-variant:normal;font-weight:normal;font-size:7.92;writing-mode:lr;-inkscape-font-specification:Arial"
                 x="0"
                 y="0"
                 id="tspan1053"></tspan><tspan
                 style="fill:#000000;fill-opacity:1;fill-rule:nonzero;stroke:none;font-family:Arial;font-variant:normal;font-weight:normal;font-size:7.92;writing-mode:lr;-inkscape-font-specification:Arial"
                 x="-8.4 -4.31999062 0.00000902"
                 y="-41.7598"
                 sodipodi:role="line"
                 id="tspan1055">만</tspan><tspan
                 style="fill:#000000;fill-opacity:1;fill-rule:nonzero;stroke:none;font-family:Arial;font-variant:normal;font-weight:normal;font-size:7.92;writing-mode:lr;-inkscape-font-specification:Arial"
                 x="-8.4 -4.31999062 0.00000902"
                 y="-83.2801"
                 sodipodi:role="line"
                 id="tspan1057">만</tspan><tspan
                 style="fill:#000000;fill-opacity:1;fill-rule:nonzero;stroke:none;font-family:Arial;font-variant:normal;font-weight:normal;font-size:7.92;writing-mode:lr;-inkscape-font-specification:Arial"
                 x="-8.4 -4.31999062 0.00000902"
                 y="-125.0399"
                 sodipodi:role="line"
                 id="tspan1059">만</tspan><tspan
                 style="fill:#000000;fill-opacity:1;fill-rule:nonzero;stroke:none;font-family:Arial;font-variant:normal;font-weight:normal;font-size:7.92;writing-mode:lr;-inkscape-font-specification:Arial"
                 x="-8.4 -4.31999062 0.00000902"
                 y="-166.8001"
                 sodipodi:role="line"
                 id="tspan1061">만</tspan><tspan
                 style="fill:#000000;fill-opacity:1;fill-rule:nonzero;stroke:none;font-family:Arial;font-variant:normal;font-weight:normal;font-size:7.92;writing-mode:lr;-inkscape-font-specification:Arial"
                 x="-12.71992 -8.39992036 -4.31991098 0.00008866"
                 y="-208.5599"
                 sodipodi:role="line"
                 id="tspan1063">만만</tspan><tspan
                 style="fill:#000000;fill-opacity:1;fill-rule:nonzero;stroke:none;font-family:Arial;font-variant:normal;font-weight:normal;font-size:7.92;writing-mode:lr;-inkscape-font-specification:Arial"
                 x="-12.71992 -8.39992036 -4.31991098 0.00008866"
                 y="-250.3201"
                 sodipodi:role="line"
                 id="tspan1065">만만</tspan><tspan
                 style="fill:#000000;fill-opacity:1;fill-rule:nonzero;stroke:none;font-family:Arial;font-variant:normal;font-weight:normal;font-size:7.92;writing-mode:lr;-inkscape-font-specification:Arial"
                 x="-12.71992 -8.39992036 -4.31991098 0.00008866"
                 y="-292.0803"
                 sodipodi:role="line"
                 id="tspan1067">만만</tspan></text>
</g><path
             d="M 4072.8,1368 L 4072.8,1411.2"
             style="fill:none;stroke:#b3b3b3;stroke-opacity:1;stroke-width:2.4;stroke-linecap:butt;stroke-linejoin:miter;stroke-miterlimit:10;stroke-dasharray:none"
             id="path1069" /><path
             d="M 3655.2,1368 L 3655.2,1411.2"
             style="fill:none;stroke:#b3b3b3;stroke-opacity:1;stroke-width:2.4;stroke-linecap:butt;stroke-linejoin:miter;stroke-miterlimit:10;stroke-dasharray:none"
             id="path1071" /><path
             d="M 3237.6,1368 L 3237.6,1411.2"
             style="fill:none;stroke:#b3b3b3;stroke-opacity:1;stroke-width:2.4;stroke-linecap:butt;stroke-linejoin:miter;stroke-miterlimit:10;stroke-dasharray:none"
             id="path1073" /><path
             d="M 2820,1368 L 2820,1411.2"
             style="fill:none;stroke:#b3b3b3;stroke-opacity:1;stroke-width:2.4;stroke-linecap:butt;stroke-linejoin:miter;stroke-miterlimit:10;stroke-dasharray:none"
             id="path1075" /><path
             d="M 2402.4,1368 L 2402.4,1411.2"
             style="fill:none;stroke:#b3b3b3;stroke-opacity:1;stroke-width:2.4;stroke-linecap:butt;stroke-linejoin:miter;stroke-miterlimit:10;stroke-dasharray:none"
             id="path1077" /><path
             d="M 1984.8,1368 L 1984.8,1411.2"
             style="fill:none;stroke:#b3b3b3;stroke-opacity:1;stroke-width:2.4;stroke-linecap:butt;stroke-linejoin:miter;stroke-miterlimit:10;stroke-dasharray:none"
             id="path1079" /><path
             d="M 1569.6,1368 L 1569.6,1411.2"
             style="fill:none;stroke:#b3b3b3;stroke-opacity:1;stroke-width:2.4;stroke-linecap:butt;stroke-linejoin:miter;stroke-miterlimit:10;stroke-dasharray:none"
             id="path1081" /><path
             d="M 1152,1368 L 1152,1411.2"
             style="fill:none;stroke:#b3b3b3;stroke-opacity:1;stroke-width:2.4;stroke-linecap:butt;stroke-linejoin:miter;stroke-miterlimit:10;stroke-dasharray:none"
             id="path1083" /><path
             d="M 4071.5884,1389.8032 L 4015.2,1389.7816 L 4015.2,1394.0816 L 3967.2,1396.4816 L 3964.8,1398.8816 L 3960,1401.2816 L 3957.6,1403.6816 L 3960,1406.0816 L 3960,1413.2816 L 3936,1418.0816 L 3936,1430.0816 L 3933.6,1432.4816 L 3933.6,1446.8816 L 3936,1451.6816 L 3936,1492.4816 L 3957.6,1494.8816 L 3957.6,1636.4816 L 3969.6,1638.8816 L 3969.6,1667.6816 L 3967.2,1670.0816 L 3967.2,1718.0816 L 3976.8,1722.8816 L 3976.8,1761.2816 L 3974.4,1763.6816 L 3974.4,1902.8816 L 3950.4,1905.2816 L 3950.4,1907.6816 L 3938.4,1910.0816 L 3938.4,1917.2816 L 3943.2,1919.6816 L 3943.2,1922.0816 L 3936,1926.8816 L 3936,1946.0816 L 3943.2,1948.4816 L 3943.2,1962.8816 L 3950.4,1965.2816 L 3962.4,1967.6816 L 3931.2,1970.0816 L 3931.2,1974.8816 L 3928.8,1977.2816 L 3928.8,2010.8816 L 3924,2013.2816 L 3924,2051.6816 L 3933.6,2054.0816 L 3933.6,2073.2816 L 3943.2,2075.6816 L 3943.2,2087.6816 L 3955.2,2090.0816 L 3952.8,2094.8816 L 3952.8,2099.6816 L 3950.4,2102.0816 L 3950.4,2123.6816 L 3955.2,2126.0816 L 3955.2,2140.4816 L 3960,2142.8816 L 3960,2152.4816 L 3962.4,2154.8816 L 3960,2157.2816 L 3960,2174.0816 L 3955.2,2176.4816 L 3955.2,2234.0816 L 3967.2,2236.4816 L 3981.6,2238.8816 L 3981.6,2243.6816 L 3979.2,2246.0816 L 3967.2,2248.4816 L 3967.2,2253.2816 L 3924,2255.6816 L 3924,2279.6816 L 3921.6,2282.0816 L 3921.6,2286.8816 L 3924,2289.2816 L 3888,2291.6816 L 3888,2344.4816 L 3873.6,2346.8816 L 3873.6,2382.8816 L 3868.8,2385.2816 L 3868.8,2392.4816 L 3866.4,2394.8816 L 3866.4,2402.0816 L 3856.8,2404.4816 L 3856.8,2442.8816 L 3852,2445.2816 L 3852,2471.6816 L 3828,2474.0816 L 3828,2507.6816 L 3820.8,2510.0816 L 3820.8,2536.4816 L 3823.2,2538.8816 L 3820.8,2541.2816 L 3818.4,2543.6816 L 3808.8,2546.0816 L 3808.8,2553.2816 L 3806.4,2555.6816 L 3806.4,2572.4816 L 3765.6,2574.8816 L 3756,2577.2816 L 3756,2586.8816 L 3758.4,2589.2816 L 3756,2591.6816 L 3756,2594.0816 L 3777.6,2596.4816 L 3777.6,2606.0816 L 3768,2608.4816 L 3763.2,2610.8816 L 3763.2,2613.2816 L 3765.6,2615.6816 L 3765.6,2625.2816 L 3763.2,2627.6816 L 3763.2,2630.0816 L 3758.4,2632.4816 L 3758.4,2644.4816 L 3756,2646.8816 L 3748.8,2649.2816 L 3748.8,2651.6816 L 3763.2,2654.0816 L 3765.6,2656.4816 L 3765.6,2661.2816 L 3758.4,2663.6816 L 3758.4,2694.8816 L 3753.6,2697.2816 L 3753.6,2702.0816 L 3744,2706.8816 L 3744,2742.8816 L 3717.6,2745.2816 L 3717.6,2754.8816 L 3712.8,2757.2816 L 3708,2759.6816 L 3708,2788.4816 L 3717.6,2790.8816 L 3717.6,2810.0816 L 3700.8,2812.4816 L 3700.8,2826.8816 L 3681.6,2829.2816 L 3688.8,2831.6816 L 3688.8,2843.6816 L 3691.2,2846.0816 L 3691.2,2848.4816 L 3684,2850.8816 L 3696,2853.2816 L 3696,2858.0816 L 3691.2,2860.4816 L 3691.2,2865.2816 L 3688.8,2867.6816 L 3688.8,2879.6816 L 3686.4,2882.0816 L 3691.2,2884.4816 L 3691.2,2896.4816 L 3681.6,2898.8816 L 3700.8,2901.2816 L 3700.8,2903.6816 L 3703.2,2906.0816 L 3703.2,2915.6816 L 3698.4,2918.0816 L 3698.4,2932.4816 L 3696,2934.8816 L 3696,2937.2816 L 3693.6,2939.6816 L 3693.6,2958.8816 L 3698.4,2961.2816 L 3698.4,2966.0816 L 3700.8,2968.4816 L 3715.2,2970.8816 L 3715.2,2978.0816 L 3664.8,2980.4816 L 3664.8,2987.6816 L 3672,2990.0816 L 3672,3009.2816 L 3674.4,3014.0816 L 3674.4,3021.2816 L 3664.8,3023.6816 L 3652.8,3026.0816 L 3652.8,3028.4816 L 3648,3030.8816 L 3648,3040.4816 L 3626.4,3045.2816 L 3626.4,3047.6816 L 3636,3050.0816 L 3638.4,3052.4816 L 3638.4,3064.4816 L 3614.4,3066.8816 L 3614.4,3081.2816 L 3595.2,3083.6816 L 3592.8,3086.0816 L 3592.8,3093.2816 L 3600,3095.6816 L 3600,3117.2816 L 3588,3119.6816 L 3588,3122.0816 L 3585.6,3124.4816 L 3585.6,3150.8816 L 3576,3153.2816 L 3576,3155.6816 L 3573.6,3158.0816 L 3573.6,3174.8816 L 3568.8,3179.6816 L 3559.2,3182.0816 L 3559.2,3189.2816 L 3540,3191.6816 L 3540,3222.8816 L 3532.8,3225.2816 L 3530.4,3227.6816 L 3520.8,3230.0816 L 3520.8,3239.6816 L 3489.6,3242.0816 L 3489.6,3246.8816 L 3482.4,3249.2816 L 3482.4,3258.8816 L 3487.2,3261.2816 L 3487.2,3282.8816 L 3470.4,3285.2816 L 3470.4,3294.8816 L 3468,3297.2816 L 3456,3299.6816 L 3456,3311.6816 L 3453.6,3316.4816 L 3453.6,3347.6816 L 3460.8,3352.4816 L 3444,3354.8816 L 3439.2,3357.2816 L 3439.2,3386.0816 L 3441.6,3388.4816 L 3441.6,3393.2816 L 3427.2,3395.6816 L 3427.2,3400.4816 L 3429.6,3402.8816 L 3424.8,3405.2816 L 3424.8,3426.8816 L 3405.6,3429.2816 L 3405.6,3455.6816 L 3400.8,3458.0816 L 3403.2,3460.4816 L 3403.2,3498.8816 L 3398.4,3501.2816 L 3398.4,3530.0816 L 3393.6,3532.4816 L 3398.4,3534.8816 L 3398.4,3546.8816 L 3400.8,3549.2816 L 3400.8,3554.0816 L 3412.8,3556.4816 L 3412.8,3573.2816 L 3410.4,3575.6816 L 3410.4,3580.4816 L 3427.2,3582.8816 L 3427.2,3585.2816 L 3432,3590.0816 L 3441.6,3592.4816 L 3441.6,3616.4816 L 3417.6,3621.2816 L 3417.6,3626.0816 L 3441.6,3628.4816 L 3463.2,3630.8816 L 3463.2,3635.6816 L 3415.2,3638.0816 L 3408,3640.4816 L 3408,3652.4816 L 3405.6,3657.2816 L 3405.6,3659.6816 L 3393.6,3662.0816 L 3393.6,3671.6816 L 3381.6,3674.0816 L 3381.6,3693.2816 L 3369.6,3695.6816 L 3369.6,3698.0816 L 3374.4,3700.4816 L 3374.4,3710.0816 L 3360,3712.4816 L 3374.4,3714.8816 L 3398.4,3717.2816 L 3396,3719.6816 L 3396,3729.2816 L 3408,3731.6816 L 3408,3782.0816 L 3400.8,3784.4816 L 3376.8,3786.8816 L 3376.8,3798.8816 L 3326.4,3801.2816 L 3326.4,3806.0816 L 3333.6,3808.4816 L 3333.6,3825.2816 L 3379.2,3827.6816 L 3379.2,3854.0816 L 3384,3858.8816 L 3386.4,3861.2816 L 3386.4,3863.6816 L 3372,3866.0816 L 3372,3875.6816 L 3374.4,3878.0816 L 3376.8,3880.4816 L 3376.8,3897.2816 L 3391.2,3899.6816 L 3408,3902.0816 L 3408,3906.8816 L 3415.2,3909.2816 L 3429.6,3911.6816 L 3417.6,3914.0816 L 3434.4,3916.4816 L 3432,3918.8816 L 3439.2,3921.2816 L 3439.2,3935.6816 L 3436.8,3938.0816 L 3432,3940.4816 L 3432,3945.2816 L 3424.8,3947.6816 L 3424.8,3959.6816 L 3420,3964.4816 L 3415.2,3966.8816 L 3408,3969.2816 L 3408,3998.0816 L 3393.6,4000.4816 L 3393.6,4036.4816 L 3396,4038.8816 L 3396,4053.2816 L 3393.6,4055.6816 L 3391.2,4058.0816 L 3410.4,4062.8816 L 3410.4,4077.2816 L 3403.2,4079.6816 L 3403.2,4120.4816 L 3405.6,4122.8816 L 3405.6,4125.2816 L 3408,4130.0816 L 3408,4142.0816 L 3400.8,4144.4816 L 3424.8,4146.8816 L 3429.6,4149.2816 L 3434.4,4151.6816 L 3434.4,4166.0816 L 3432,4168.4816 L 3432,4170.8816 L 3422.4,4173.2816 L 3422.4,4180.4816 L 3424.8,4182.8816 L 3424.8,4204.4816 L 3432,4206.8816 L 3432,4216.4816 L 3427.2,4218.8816 L 3436.8,4221.2816 L 3436.8,4223.6816 L 3424.8,4226.0816 L 3424.8,4259.6816 L 3427.2,4262.0816 L 3427.2,4271.6816 L 3424.8,4274.0816 L 3424.8,4293.2816 L 3422.4,4295.6816 L 3424.8,4300.4816 L 3424.8,4307.6816 L 3410.4,4310.0816 L 3410.4,4326.8816 L 3412.8,4329.2816 L 3412.8,4341.2816 L 3405.6,4343.6816 L 3405.6,4346.0816 L 3422.4,4348.4816 L 3422.4,4353.2816 L 3417.6,4355.6816 L 3417.6,4370.0816 L 3410.4,4372.4816 L 3410.4,4374.8816 L 3408,4377.2816 L 3415.2,4379.6816 L 3415.2,4382.0816 L 3422.4,4384.4816 L 3417.6,4386.8816 L 3412.8,4389.2816 L 3412.8,4394.0816 L 3410.4,4396.4816 L 3405.6,4398.8816 L 3405.6,4413.2816 L 3400.8,4415.6816 L 3400.8,4434.8816 L 3403.2,4437.2816 L 3403.2,4444.4816 L 3408,4446.8816 L 3408,4451.6816 L 3410.4,4454.0816 L 3410.4,4473.2816 L 3412.8,4475.6816 L 3412.8,4487.6816 L 3408,4490.0816 L 3408,4494.8816 L 3410.4,4497.2816 L 3410.4,4511.6816 L 3408,4514.0816 L 3405.6,4516.4816 L 3405.6,4578.8816 L 3403.2,4581.2816 L 3403.2,4674.8816 L 3398.4,4677.2816 L 3398.4,4751.6816 L 3405.6,4754.0816 L 3405.6,4761.2816 L 3434.4,4763.6816 L 3434.4,4792.4816 L 3398.4,4794.8816 L 3405.6,4797.2816 L 3405.6,4811.6816 L 3391.2,4814.0816 L 3391.2,4828.4816 L 3408,4830.8816 L 3388.8,4833.2816 L 3388.8,4838.0816 L 3384,4840.4816 L 3384,4883.6816 L 3379.2,4886.0816 L 3379.2,4890.8816 L 3369.6,4893.2816 L 3374.4,4895.6816 L 3374.4,4900.4816 L 3343.2,4902.8816 L 3345.6,4905.2816 L 3360,4907.6816 L 3360,4912.4816 L 4072.8,4912.4816"
             style="fill:#ff420e;fill-opacity:1;fill-rule:evenodd;stroke:none"
             id="path1087"
             sodipodi:nodetypes="cccccccccccccccccccccccccccccccccccccccccccccccccccccccccccccccccccccccccccccccccccccccccccccccccccccccccccccccccccccccccccccccccccccccccccccccccccccccccccccccccccccccccccccccccccccccccccccccccccccccccccccccccccccccccccccccccccccccccccccccccccccccccccccccccccccccccccccccccccccccccccccccccccccccccccccccccccccccccccccccccccccccccccccccccccccccccccccccccccccccccccccccccccccccccccccccccccccccccccccccccccccccccccccccc" /><path
             d="M 4015.2,1389.5 L 4015.2,1394.3 L 3967.2,1396.7 L 3964.8,1399.1 L 3960,1401.5 L 3957.6,1403.9 L 3960,1406.3 L 3960,1413.5 L 3936,1418.3 L 3936,1430.3 L 3933.6,1432.7 L 3933.6,1447.1 L 3936,1451.9 L 3936,1492.7 L 3957.6,1495.1 L 3957.6,1636.7 L 3969.6,1639.1 L 3969.6,1667.9 L 3967.2,1670.3 L 3967.2,1718.3 L 3976.8,1723.1 L 3976.8,1761.5 L 3974.4,1763.9 L 3974.4,1903.1 L 3950.4,1905.5 L 3950.4,1907.9 L 3938.4,1910.3 L 3938.4,1917.5 L 3943.2,1919.9 L 3943.2,1922.3 L 3936,1927.1 L 3936,1946.3 L 3943.2,1948.7 L 3943.2,1963.1 L 3950.4,1965.5 L 3962.4,1967.9 L 3931.2,1970.3 L 3931.2,1975.1 L 3928.8,1977.5 L 3928.8,2011.1 L 3924,2013.5 L 3924,2051.9 L 3933.6,2054.3 L 3933.6,2073.5 L 3943.2,2075.9 L 3943.2,2087.9 L 3955.2,2090.3 L 3952.8,2095.1 L 3952.8,2099.9 L 3950.4,2102.3 L 3950.4,2123.9 L 3955.2,2126.3 L 3955.2,2140.7 L 3960,2143.1 L 3960,2152.7 L 3962.4,2155.1 L 3960,2157.5 L 3960,2174.3 L 3955.2,2176.7 L 3955.2,2234.3 L 3967.2,2236.7 L 3981.6,2239.1 L 3981.6,2243.9 L 3979.2,2246.3 L 3967.2,2248.7 L 3967.2,2253.5 L 3924,2255.9 L 3924,2279.9 L 3921.6,2282.3 L 3921.6,2287.1 L 3924,2289.5 L 3888,2291.9 L 3888,2344.7 L 3873.6,2347.1 L 3873.6,2383.1 L 3868.8,2385.5 L 3868.8,2392.7 L 3866.4,2395.1 L 3866.4,2402.3 L 3856.8,2404.7 L 3856.8,2443.1 L 3852,2445.5 L 3852,2471.9 L 3828,2474.3 L 3828,2507.9 L 3820.8,2510.3 L 3820.8,2536.7 L 3823.2,2539.1 L 3820.8,2541.5 L 3818.4,2543.9 L 3808.8,2546.3 L 3808.8,2553.5 L 3806.4,2555.9 L 3806.4,2572.7 L 3765.6,2575.1 L 3756,2577.5 L 3756,2587.1 L 3758.4,2589.5 L 3756,2591.9 L 3756,2594.3 L 3777.6,2596.7 L 3777.6,2606.3 L 3768,2608.7 L 3763.2,2611.1 L 3763.2,2613.5 L 3765.6,2615.9 L 3765.6,2625.5 L 3763.2,2627.9 L 3763.2,2630.3 L 3758.4,2632.7 L 3758.4,2644.7 L 3756,2647.1 L 3748.8,2649.5 L 3748.8,2651.9 L 3763.2,2654.3 L 3765.6,2656.7 L 3765.6,2661.5 L 3758.4,2663.9 L 3758.4,2695.1 L 3753.6,2697.5 L 3753.6,2702.3 L 3744,2707.1 L 3744,2743.1 L 3717.6,2745.5 L 3717.6,2755.1 L 3712.8,2757.5 L 3708,2759.9 L 3708,2788.7 L 3717.6,2791.1 L 3717.6,2810.3 L 3700.8,2812.7 L 3700.8,2827.1 L 3681.6,2829.5 L 3688.8,2831.9 L 3688.8,2843.9 L 3691.2,2846.3 L 3691.2,2848.7 L 3684,2851.1 L 3696,2853.5 L 3696,2858.3 L 3691.2,2860.7 L 3691.2,2865.5 L 3688.8,2867.9 L 3688.8,2879.9 L 3686.4,2882.3 L 3691.2,2884.7 L 3691.2,2896.7 L 3681.6,2899.1 L 3700.8,2901.5 L 3700.8,2903.9 L 3703.2,2906.3 L 3703.2,2915.9 L 3698.4,2918.3 L 3698.4,2932.7 L 3696,2935.1 L 3696,2937.5 L 3693.6,2939.9 L 3693.6,2959.1 L 3698.4,2961.5 L 3698.4,2966.3 L 3700.8,2968.7 L 3715.2,2971.1 L 3715.2,2978.3 L 3664.8,2980.7 L 3664.8,2987.9 L 3672,2990.3 L 3672,3009.5 L 3674.4,3014.3 L 3674.4,3021.5 L 3664.8,3023.9 L 3652.8,3026.3 L 3652.8,3028.7 L 3648,3031.1 L 3648,3040.7 L 3626.4,3045.5 L 3626.4,3047.9 L 3636,3050.3 L 3638.4,3052.7 L 3638.4,3064.7 L 3614.4,3067.1 L 3614.4,3081.5 L 3595.2,3083.9 L 3592.8,3086.3 L 3592.8,3093.5 L 3600,3095.9 L 3600,3117.5 L 3588,3119.9 L 3588,3122.3 L 3585.6,3124.7 L 3585.6,3151.1 L 3576,3153.5 L 3576,3155.9 L 3573.6,3158.3 L 3573.6,3175.1 L 3568.8,3179.9 L 3559.2,3182.3 L 3559.2,3189.5 L 3540,3191.9 L 3540,3223.1 L 3532.8,3225.5 L 3530.4,3227.9 L 3520.8,3230.3 L 3520.8,3239.9 L 3489.6,3242.3 L 3489.6,3247.1 L 3482.4,3249.5 L 3482.4,3259.1 L 3487.2,3261.5 L 3487.2,3283.1 L 3470.4,3285.5 L 3470.4,3295.1 L 3468,3297.5 L 3456,3299.9 L 3456,3311.9 L 3453.6,3316.7 L 3453.6,3347.9 L 3460.8,3352.7 L 3444,3355.1 L 3439.2,3357.5 L 3439.2,3386.3 L 3441.6,3388.7 L 3441.6,3393.5 L 3427.2,3395.9 L 3427.2,3400.7 L 3429.6,3403.1 L 3424.8,3405.5 L 3424.8,3427.1 L 3405.6,3429.5 L 3405.6,3455.9 L 3400.8,3458.3 L 3403.2,3460.7 L 3403.2,3499.1 L 3398.4,3501.5 L 3398.4,3530.3 L 3393.6,3532.7 L 3398.4,3535.1 L 3398.4,3547.1 L 3400.8,3549.5 L 3400.8,3554.3 L 3412.8,3556.7 L 3412.8,3573.5 L 3410.4,3575.9 L 3410.4,3580.7 L 3427.2,3583.1 L 3427.2,3585.5 L 3432,3590.3 L 3441.6,3592.7 L 3441.6,3616.7 L 3417.6,3621.5 L 3417.6,3626.3 L 3441.6,3628.7 L 3463.2,3631.1 L 3463.2,3635.9 L 3415.2,3638.3 L 3408,3640.7 L 3408,3652.7 L 3405.6,3657.5 L 3405.6,3659.9 L 3393.6,3662.3 L 3393.6,3671.9 L 3381.6,3674.3 L 3381.6,3693.5 L 3369.6,3695.9 L 3369.6,3698.3 L 3374.4,3700.7 L 3374.4,3710.3 L 3360,3712.7 L 3374.4,3715.1 L 3398.4,3717.5 L 3396,3719.9 L 3396,3729.5 L 3408,3731.9 L 3408,3782.3 L 3400.8,3784.7 L 3376.8,3787.1 L 3376.8,3799.1 L 3326.4,3801.5 L 3326.4,3806.3 L 3333.6,3808.7 L 3333.6,3825.5 L 3379.2,3827.9 L 3379.2,3854.3 L 3384,3859.1 L 3386.4,3861.5 L 3386.4,3863.9 L 3372,3866.3 L 3372,3875.9 L 3374.4,3878.3 L 3376.8,3880.7 L 3376.8,3897.5 L 3391.2,3899.9 L 3408,3902.3 L 3408,3907.1 L 3415.2,3909.5 L 3429.6,3911.9 L 3417.6,3914.3 L 3434.4,3916.7 L 3432,3919.1 L 3439.2,3921.5 L 3439.2,3935.9 L 3436.8,3938.3 L 3432,3940.7 L 3432,3945.5 L 3424.8,3947.9 L 3424.8,3959.9 L 3420,3964.7 L 3415.2,3967.1 L 3408,3969.5 L 3408,3998.3 L 3393.6,4000.7 L 3393.6,4036.7 L 3396,4039.1 L 3396,4053.5 L 3393.6,4055.9 L 3391.2,4058.3 L 3410.4,4063.1 L 3410.4,4077.5 L 3403.2,4079.9 L 3403.2,4120.7 L 3405.6,4123.1 L 3405.6,4125.5 L 3408,4130.3 L 3408,4142.3 L 3400.8,4144.7 L 3424.8,4147.1 L 3429.6,4149.5 L 3434.4,4151.9 L 3434.4,4166.3 L 3432,4168.7 L 3432,4171.1 L 3422.4,4173.5 L 3422.4,4180.7 L 3424.8,4183.1 L 3424.8,4204.7 L 3432,4207.1 L 3432,4216.7 L 3427.2,4219.1 L 3436.8,4221.5 L 3436.8,4223.9 L 3424.8,4226.3 L 3424.8,4259.9 L 3427.2,4262.3 L 3427.2,4271.9 L 3424.8,4274.3 L 3424.8,4293.5 L 3422.4,4295.9 L 3424.8,4300.7 L 3424.8,4307.9 L 3410.4,4310.3 L 3410.4,4327.1 L 3412.8,4329.5 L 3412.8,4341.5 L 3405.6,4343.9 L 3405.6,4346.3 L 3422.4,4348.7 L 3422.4,4353.5 L 3417.6,4355.9 L 3417.6,4370.3 L 3410.4,4372.7 L 3410.4,4375.1 L 3408,4377.5 L 3415.2,4379.9 L 3415.2,4382.3 L 3422.4,4384.7 L 3417.6,4387.1 L 3412.8,4389.5 L 3412.8,4394.3 L 3410.4,4396.7 L 3405.6,4399.1 L 3405.6,4413.5 L 3400.8,4415.9 L 3400.8,4435.1 L 3403.2,4437.5 L 3403.2,4444.7 L 3408,4447.1 L 3408,4451.9 L 3410.4,4454.3 L 3410.4,4473.5 L 3412.8,4475.9 L 3412.8,4487.9 L 3408,4490.3 L 3408,4495.1 L 3410.4,4497.5 L 3410.4,4511.9 L 3408,4514.3 L 3405.6,4516.7 L 3405.6,4579.1 L 3403.2,4581.5 L 3403.2,4675.1 L 3398.4,4677.5 L 3398.4,4751.9 L 3405.6,4754.3 L 3405.6,4761.5 L 3434.4,4763.9 L 3434.4,4792.7 L 3398.4,4795.1 L 3405.6,4797.5 L 3405.6,4811.9 L 3391.2,4814.3 L 3391.2,4828.7 L 3408,4831.1 L 3388.8,4833.5 L 3388.8,4838.3 L 3384,4840.7 L 3384,4883.9 L 3379.2,4886.3 L 3379.2,4891.1 L 3369.6,4893.5 L 3374.4,4895.9 L 3374.4,4900.7 L 3343.2,4903.1 L 3345.6,4905.5 L 3360,4907.9 L 3360,4912.7 L 4072.8,4912.7"
             style="fill:none;stroke:#000000;stroke-width:2.4000001;stroke-linecap:butt;stroke-linejoin:miter;stroke-miterlimit:10;stroke-dasharray:none;stroke-opacity:1"
             id="path1089"
             sodipodi:nodetypes="ccccccccccccccccccccccccccccccccccccccccccccccccccccccccccccccccccccccccccccccccccccccccccccccccccccccccccccccccccccccccccccccccccccccccccccccccccccccccccccccccccccccccccccccccccccccccccccccccccccccccccccccccccccccccccccccccccccccccccccccccccccccccccccccccccccccccccccccccccccccccccccccccccccccccccccccccccccccccccccccccccccccccccccccccccccccccccccccccccccccccccccccccccccccccccccccccccccccccccccccccccccccccccccccc" /><path
             d="M 3988.7116,1389.6906 L 3988.8,1394.8 L 3940.8,1397.2 L 3938.4,1399.6 L 3936,1402 L 3933.6,1404.4 L 3933.6,1414 L 3907.2,1418.8 L 3907.2,1637.2 L 3902.4,1639.6 L 3902.4,1668.4 L 3897.6,1670.8 L 3897.6,1903.6 L 3873.6,1906 L 3873.6,1908.4 L 3856.8,1910.8 L 3856.8,1918 L 3854.4,1920.4 L 3854.4,1922.8 L 3847.2,1927.6 L 3847.2,1963.6 L 3842.4,1966 L 3842.4,1968.4 L 3811.2,1970.8 L 3811.2,1975.6 L 3808.8,1978 L 3808.8,2011.6 L 3806.4,2014 L 3806.4,2074 L 3804,2076.4 L 3804,2088.4 L 3806.4,2090.8 L 3804,2095.6 L 3804,2100.4 L 3801.6,2102.8 L 3801.6,2174.8 L 3796.8,2177.2 L 3796.8,2237.2 L 3799.2,2239.6 L 3799.2,2244.4 L 3796.8,2246.8 L 3784.8,2249.2 L 3784.8,2254 L 3744,2256.4 L 3744,2280.4 L 3741.6,2282.8 L 3741.6,2290 L 3674.4,2292.4 L 3674.4,2345.2 L 3660,2347.6 L 3660,2383.6 L 3648,2386 L 3648,2393.2 L 3636,2395.6 L 3636,2402.8 L 3628.8,2405.2 L 3628.8,2443.6 L 3619.2,2446 L 3619.2,2472.4 L 3597.6,2474.8 L 3597.6,2482 L 3595.2,2484.4 L 3595.2,2508.4 L 3585.6,2510.8 L 3585.6,2539.6 L 3580.8,2542 L 3578.4,2544.4 L 3568.8,2546.8 L 3568.8,2554 L 3566.4,2556.4 L 3566.4,2573.2 L 3525.6,2575.6 L 3516,2578 L 3516,2590 L 3513.6,2592.4 L 3513.6,2594.8 L 3501.6,2597.2 L 3501.6,2606.8 L 3487.2,2609.2 L 3484.8,2611.6 L 3484.8,2626 L 3480,2628.4 L 3480,2630.8 L 3475.2,2633.2 L 3475.2,2642.8 L 3472.8,2645.2 L 3470.4,2647.6 L 3465.6,2650 L 3465.6,2652.4 L 3456,2654.8 L 3444,2657.2 L 3444,2662 L 3439.2,2664.4 L 3439.2,2681.2 L 3429.6,2683.6 L 3429.6,2695.6 L 3420,2698 L 3420,2702.8 L 3408,2707.6 L 3408,2719.6 L 3405.6,2722 L 3405.6,2726.8 L 3403.2,2729.2 L 3403.2,2743.6 L 3372,2746 L 3372,2755.6 L 3364.8,2758 L 3360,2760.4 L 3360,2810.8 L 3343.2,2813.2 L 3343.2,2827.6 L 3324,2830 L 3321.6,2832.4 L 3321.6,2849.2 L 3314.4,2851.6 L 3314.4,2858.8 L 3312,2861.2 L 3312,2866 L 3304.8,2868.4 L 3304.8,2880.4 L 3302.4,2882.8 L 3302.4,2897.2 L 3295.2,2899.6 L 3297.6,2902 L 3297.6,2916.4 L 3292.8,2918.8 L 3292.8,2933.2 L 3288,2935.6 L 3288,2938 L 3285.6,2940.4 L 3285.6,2969.2 L 3283.2,2971.6 L 3283.2,2978.8 L 3232.8,2981.2 L 3232.8,2988.4 L 3208.8,2990.8 L 3208.8,3014.8 L 3187.2,3017.2 L 3187.2,3022 L 3177.6,3024.4 L 3156,3026.8 L 3156,3029.2 L 3151.2,3031.6 L 3151.2,3041.2 L 3129.6,3046 L 3129.6,3048.4 L 3127.2,3050.8 L 3127.2,3065.2 L 3062.4,3067.6 L 3062.4,3074.8 L 3057.6,3077.2 L 3057.6,3082 L 3036,3084.4 L 3033.6,3086.8 L 3033.6,3118 L 3016.8,3120.4 L 3016.8,3122.8 L 3014.4,3125.2 L 3014.4,3151.6 L 2992.8,3154 L 2992.8,3156.4 L 2990.4,3158.8 L 2990.4,3175.6 L 2985.6,3180.4 L 2976,3182.8 L 2976,3190 L 2949.6,3192.4 L 2949.6,3223.6 L 2942.4,3226 L 2940,3228.4 L 2920.8,3230.8 L 2920.8,3240.4 L 2889.6,3242.8 L 2889.6,3247.6 L 2870.4,3250 L 2870.4,3283.6 L 2820,3286 L 2820,3295.6 L 2815.2,3298 L 2791.2,3300.4 L 2791.2,3312.4 L 2784,3317.2 L 2784,3353.2 L 2767.2,3355.6 L 2762.4,3358 L 2762.4,3394 L 2750.4,3396.4 L 2750.4,3401.2 L 2745.6,3403.6 L 2738.4,3406 L 2738.4,3427.6 L 2695.2,3430 L 2695.2,3456.4 L 2688,3458.8 L 2688,3499.6 L 2666.4,3502 L 2666.4,3530.8 L 2661.6,3533.2 L 2661.6,3554.8 L 2606.4,3557.2 L 2606.4,3574 L 2604,3576.4 L 2604,3581.2 L 2601.6,3583.6 L 2601.6,3600.4 L 2596.8,3602.8 L 2596.8,3617.2 L 2572.8,3622 L 2572.8,3636.4 L 2524.8,3638.8 L 2517.6,3641.2 L 2517.6,3653.2 L 2512.8,3658 L 2512.8,3660.4 L 2500.8,3662.8 L 2479.2,3665.2 L 2479.2,3672.4 L 2450.4,3674.8 L 2450.4,3694 L 2438.4,3696.4 L 2438.4,3710.8 L 2404.8,3713.2 L 2400,3715.6 L 2395.2,3718 L 2392.8,3720.4 L 2392.8,3734.8 L 2390.4,3737.2 L 2390.4,3782.8 L 2380.8,3785.2 L 2354.4,3787.6 L 2354.4,3799.6 L 2304,3802 L 2304,3854.8 L 2301.6,3859.6 L 2301.6,3864.4 L 2280,3866.8 L 2277.6,3869.2 L 2277.6,3878.8 L 2275.2,3881.2 L 2275.2,3883.6 L 2272.8,3886 L 2272.8,3898 L 2260.8,3900.4 L 2246.4,3902.8 L 2246.4,3910 L 2253.6,3912.4 L 2241.6,3914.8 L 2234.4,3917.2 L 2232,3919.6 L 2232,3936.4 L 2229.6,3938.8 L 2222.4,3941.2 L 2222.4,3946 L 2215.2,3948.4 L 2215.2,3955.6 L 2212.8,3958 L 2212.8,3960.4 L 2208,3965.2 L 2205.6,3967.6 L 2196,3970 L 2196,3998.8 L 2176.8,4001.2 L 2176.8,4034.8 L 2174.4,4037.2 L 2174.4,4054 L 2172,4056.4 L 2152.8,4058.8 L 2140.8,4063.6 L 2140.8,4078 L 2131.2,4080.4 L 2131.2,4126 L 2124,4130.8 L 2124,4142.8 L 2114.4,4145.2 L 2083.2,4147.6 L 2097.6,4150 L 2097.6,4166.8 L 2095.2,4169.2 L 2095.2,4171.6 L 2083.2,4174 L 2083.2,4181.2 L 2049.6,4183.6 L 2049.6,4205.2 L 2052,4207.6 L 2052,4217.2 L 2047.2,4219.6 L 2047.2,4224.4 L 2032.8,4226.8 L 2030.4,4229.2 L 2030.4,4272.4 L 2004,4274.8 L 2004,4289.2 L 2001.6,4291.6 L 2001.6,4296.4 L 1987.2,4301.2 L 1987.2,4308.4 L 1972.8,4310.8 L 1972.8,4342 L 1965.6,4344.4 L 1965.6,4346.8 L 1960.8,4349.2 L 1960.8,4354 L 1956,4356.4 L 1956,4370.8 L 1951.2,4373.2 L 1951.2,4375.6 L 1939.2,4378 L 1939.2,4382.8 L 1929.6,4385.2 L 1924.8,4387.6 L 1920,4390 L 1920,4397.2 L 1912.8,4399.6 L 1912.8,4414 L 1908,4416.4 L 1908,4488.4 L 1903.2,4490.8 L 1903.2,4512.4 L 1888.8,4514.8 L 1886.4,4517.2 L 1886.4,4579.6 L 1884,4582 L 1884,4658.8 L 1860,4661.2 L 1860,4675.6 L 1857.6,4678 L 1857.6,4762 L 1776,4764.4 L 1776,4781.2 L 1764,4783.6 L 1764,4793.2 L 1718.4,4795.6 L 1716,4798 L 1716,4812.4 L 1694.4,4814.8 L 1694.4,4829.2 L 1670.4,4831.6 L 1651.2,4834 L 1651.2,4836.4 L 1644,4838.8 L 1634.4,4841.2 L 1634.4,4884.4 L 1629.6,4886.8 L 1629.6,4891.6 L 1615.2,4894 L 1615.2,4901.2 L 1584,4903.6 L 1586.4,4906 L 1591.2,4908.4 L 1593.6,4913.2 L 3360,4913.2 L 3360,4908.4 L 3345.6,4906 L 3343.2,4903.6 L 3374.4,4901.2 L 3374.4,4896.4 L 3369.6,4894 L 3379.2,4891.6 L 3379.2,4886.8 L 3384,4884.4 L 3384,4841.2 L 3388.8,4838.8 L 3388.8,4834 L 3408,4831.6 L 3391.2,4829.2 L 3391.2,4814.8 L 3405.6,4812.4 L 3405.6,4798 L 3398.4,4795.6 L 3434.4,4793.2 L 3434.4,4764.4 L 3405.6,4762 L 3405.6,4754.8 L 3398.4,4752.4 L 3398.4,4678 L 3403.2,4675.6 L 3403.2,4582 L 3405.6,4579.6 L 3405.6,4517.2 L 3408,4514.8 L 3410.4,4512.4 L 3410.4,4498 L 3408,4495.6 L 3408,4490.8 L 3412.8,4488.4 L 3412.8,4476.4 L 3410.4,4474 L 3410.4,4454.8 L 3408,4452.4 L 3408,4447.6 L 3403.2,4445.2 L 3403.2,4438 L 3400.8,4435.6 L 3400.8,4416.4 L 3405.6,4414 L 3405.6,4399.6 L 3410.4,4397.2 L 3412.8,4394.8 L 3412.8,4390 L 3417.6,4387.6 L 3422.4,4385.2 L 3415.2,4382.8 L 3415.2,4380.4 L 3408,4378 L 3410.4,4375.6 L 3410.4,4373.2 L 3417.6,4370.8 L 3417.6,4356.4 L 3422.4,4354 L 3422.4,4349.2 L 3405.6,4346.8 L 3405.6,4344.4 L 3412.8,4342 L 3412.8,4330 L 3410.4,4327.6 L 3410.4,4310.8 L 3424.8,4308.4 L 3424.8,4301.2 L 3422.4,4296.4 L 3424.8,4294 L 3424.8,4274.8 L 3427.2,4272.4 L 3427.2,4262.8 L 3424.8,4260.4 L 3424.8,4226.8 L 3436.8,4224.4 L 3436.8,4222 L 3427.2,4219.6 L 3432,4217.2 L 3432,4207.6 L 3424.8,4205.2 L 3424.8,4183.6 L 3422.4,4181.2 L 3422.4,4174 L 3432,4171.6 L 3432,4169.2 L 3434.4,4166.8 L 3434.4,4152.4 L 3429.6,4150 L 3424.8,4147.6 L 3400.8,4145.2 L 3408,4142.8 L 3408,4130.8 L 3405.6,4126 L 3405.6,4123.6 L 3403.2,4121.2 L 3403.2,4080.4 L 3410.4,4078 L 3410.4,4063.6 L 3391.2,4058.8 L 3393.6,4056.4 L 3396,4054 L 3396,4039.6 L 3393.6,4037.2 L 3393.6,4001.2 L 3408,3998.8 L 3408,3970 L 3415.2,3967.6 L 3420,3965.2 L 3424.8,3960.4 L 3424.8,3948.4 L 3432,3946 L 3432,3941.2 L 3436.8,3938.8 L 3439.2,3936.4 L 3439.2,3922 L 3432,3919.6 L 3434.4,3917.2 L 3417.6,3914.8 L 3429.6,3912.4 L 3415.2,3910 L 3408,3907.6 L 3408,3902.8 L 3391.2,3900.4 L 3376.8,3898 L 3376.8,3881.2 L 3374.4,3878.8 L 3372,3876.4 L 3372,3866.8 L 3386.4,3864.4 L 3386.4,3862 L 3384,3859.6 L 3379.2,3854.8 L 3379.2,3828.4 L 3333.6,3826 L 3333.6,3809.2 L 3326.4,3806.8 L 3326.4,3802 L 3376.8,3799.6 L 3376.8,3787.6 L 3400.8,3785.2 L 3408,3782.8 L 3408,3732.4 L 3396,3730 L 3396,3720.4 L 3398.4,3718 L 3374.4,3715.6 L 3360,3713.2 L 3374.4,3710.8 L 3374.4,3701.2 L 3369.6,3698.8 L 3369.6,3696.4 L 3381.6,3694 L 3381.6,3674.8 L 3393.6,3672.4 L 3393.6,3662.8 L 3405.6,3660.4 L 3405.6,3658 L 3408,3653.2 L 3408,3641.2 L 3415.2,3638.8 L 3463.2,3636.4 L 3463.2,3631.6 L 3441.6,3629.2 L 3417.6,3626.8 L 3417.6,3622 L 3441.6,3617.2 L 3441.6,3593.2 L 3432,3590.8 L 3427.2,3586 L 3427.2,3583.6 L 3410.4,3581.2 L 3410.4,3576.4 L 3412.8,3574 L 3412.8,3557.2 L 3400.8,3554.8 L 3400.8,3550 L 3398.4,3547.6 L 3398.4,3535.6 L 3393.6,3533.2 L 3398.4,3530.8 L 3398.4,3502 L 3403.2,3499.6 L 3403.2,3461.2 L 3400.8,3458.8 L 3405.6,3456.4 L 3405.6,3430 L 3424.8,3427.6 L 3424.8,3406 L 3429.6,3403.6 L 3427.2,3401.2 L 3427.2,3396.4 L 3441.6,3394 L 3441.6,3389.2 L 3439.2,3386.8 L 3439.2,3358 L 3444,3355.6 L 3460.8,3353.2 L 3453.6,3348.4 L 3453.6,3317.2 L 3456,3312.4 L 3456,3300.4 L 3468,3298 L 3470.4,3295.6 L 3470.4,3286 L 3487.2,3283.6 L 3487.2,3262 L 3482.4,3259.6 L 3482.4,3250 L 3489.6,3247.6 L 3489.6,3242.8 L 3520.8,3240.4 L 3520.8,3230.8 L 3530.4,3228.4 L 3532.8,3226 L 3540,3223.6 L 3540,3192.4 L 3559.2,3190 L 3559.2,3182.8 L 3568.8,3180.4 L 3573.6,3175.6 L 3573.6,3158.8 L 3576,3156.4 L 3576,3154 L 3585.6,3151.6 L 3585.6,3125.2 L 3588,3122.8 L 3588,3120.4 L 3600,3118 L 3600,3096.4 L 3592.8,3094 L 3592.8,3086.8 L 3595.2,3084.4 L 3614.4,3082 L 3614.4,3067.6 L 3638.4,3065.2 L 3638.4,3053.2 L 3636,3050.8 L 3626.4,3048.4 L 3626.4,3046 L 3648,3041.2 L 3648,3031.6 L 3652.8,3029.2 L 3652.8,3026.8 L 3664.8,3024.4 L 3674.4,3022 L 3674.4,3014.8 L 3672,3010 L 3672,2990.8 L 3664.8,2988.4 L 3664.8,2981.2 L 3715.2,2978.8 L 3715.2,2971.6 L 3700.8,2969.2 L 3698.4,2966.8 L 3698.4,2962 L 3693.6,2959.6 L 3693.6,2940.4 L 3696,2938 L 3696,2935.6 L 3698.4,2933.2 L 3698.4,2918.8 L 3703.2,2916.4 L 3703.2,2906.8 L 3700.8,2904.4 L 3700.8,2902 L 3681.6,2899.6 L 3691.2,2897.2 L 3691.2,2885.2 L 3686.4,2882.8 L 3688.8,2880.4 L 3688.8,2868.4 L 3691.2,2866 L 3691.2,2861.2 L 3696,2858.8 L 3696,2854 L 3684,2851.6 L 3691.2,2849.2 L 3691.2,2846.8 L 3688.8,2844.4 L 3688.8,2832.4 L 3681.6,2830 L 3700.8,2827.6 L 3700.8,2813.2 L 3717.6,2810.8 L 3717.6,2791.6 L 3708,2789.2 L 3708,2760.4 L 3712.8,2758 L 3717.6,2755.6 L 3717.6,2746 L 3744,2743.6 L 3744,2707.6 L 3753.6,2702.8 L 3753.6,2698 L 3758.4,2695.6 L 3758.4,2664.4 L 3765.6,2662 L 3765.6,2657.2 L 3763.2,2654.8 L 3748.8,2652.4 L 3748.8,2650 L 3756,2647.6 L 3758.4,2645.2 L 3758.4,2633.2 L 3763.2,2630.8 L 3763.2,2628.4 L 3765.6,2626 L 3765.6,2616.4 L 3763.2,2614 L 3763.2,2611.6 L 3768,2609.2 L 3777.6,2606.8 L 3777.6,2597.2 L 3756,2594.8 L 3756,2592.4 L 3758.4,2590 L 3756,2587.6 L 3756,2578 L 3765.6,2575.6 L 3806.4,2573.2 L 3806.4,2556.4 L 3808.8,2554 L 3808.8,2546.8 L 3818.4,2544.4 L 3820.8,2542 L 3823.2,2539.6 L 3820.8,2537.2 L 3820.8,2510.8 L 3828,2508.4 L 3828,2474.8 L 3852,2472.4 L 3852,2446 L 3856.8,2443.6 L 3856.8,2405.2 L 3866.4,2402.8 L 3866.4,2395.6 L 3868.8,2393.2 L 3868.8,2386 L 3873.6,2383.6 L 3873.6,2347.6 L 3888,2345.2 L 3888,2292.4 L 3924,2290 L 3921.6,2287.6 L 3921.6,2282.8 L 3924,2280.4 L 3924,2256.4 L 3967.2,2254 L 3967.2,2249.2 L 3979.2,2246.8 L 3981.6,2244.4 L 3981.6,2239.6 L 3967.2,2237.2 L 3955.2,2234.8 L 3955.2,2177.2 L 3960,2174.8 L 3960,2158 L 3962.4,2155.6 L 3960,2153.2 L 3960,2143.6 L 3955.2,2141.2 L 3955.2,2126.8 L 3950.4,2124.4 L 3950.4,2102.8 L 3952.8,2100.4 L 3952.8,2095.6 L 3955.2,2090.8 L 3943.2,2088.4 L 3943.2,2076.4 L 3933.6,2074 L 3933.6,2054.8 L 3924,2052.4 L 3924,2014 L 3928.8,2011.6 L 3928.8,1978 L 3931.2,1975.6 L 3931.2,1970.8 L 3962.4,1968.4 L 3950.4,1966 L 3943.2,1963.6 L 3943.2,1949.2 L 3936,1946.8 L 3936,1927.6 L 3943.2,1922.8 L 3943.2,1920.4 L 3938.4,1918 L 3938.4,1910.8 L 3950.4,1908.4 L 3950.4,1906 L 3974.4,1903.6 L 3974.4,1764.4 L 3976.8,1762 L 3976.8,1723.6 L 3967.2,1718.8 L 3967.2,1670.8 L 3969.6,1668.4 L 3969.6,1639.6 L 3957.6,1637.2 L 3957.6,1495.6 L 3936,1493.2 L 3936,1452.4 L 3933.6,1447.6 L 3933.6,1433.2 L 3936,1430.8 L 3936,1418.8 L 3960,1414 L 3960,1406.8 L 3957.6,1404.4 L 3960,1402 L 3964.8,1399.6 L 3967.2,1397.2 L 4015.2,1394.8 L 4015.1558,1389.7348"
             style="fill:#ffd420;fill-opacity:1;fill-rule:evenodd;stroke:none"
             id="path1091"
             sodipodi:nodetypes="cccccccccccccccccccccccccccccccccccccccccccccccccccccccccccccccccccccccccccccccccccccccccccccccccccccccccccccccccccccccccccccccccccccccccccccccccccccccccccccccccccccccccccccccccccccccccccccccccccccccccccccccccccccccccccccccccccccccccccccccccccccccccccccccccccccccccccccccccccccccccccccccccccccccccccccccccccccccccccccccccccccccccccccccccccccccccccccccccccccccccccccccccccccccccccccccccccccccccccccccccccccccccccccccccccccccccccccccccccccccccccccccccccccccccccccccccccccccccccccccccccccccccccccccccccccccccccccccccccccccccccccccccccccccccccccccccccccccccccccccccccccccccccccccccccccccccccccccccccccccccccccccccccccccccccccccccccccccccccccccccccccccccccccccccccccccccccccccccccccccccccccccccccccccccccccccccccccccccccccccccccccccccccccccccccccccccccccccccccccccccccc" /><path
             d="M 3988.8,1389.2816 L 3988.8,1394.0816 L 3940.8,1396.4816 L 3938.4,1398.8816 L 3936,1401.2816 L 3933.6,1403.6816 L 3933.6,1413.2816 L 3907.2,1418.0816 L 3907.2,1636.4816 L 3902.4,1638.8816 L 3902.4,1667.6816 L 3897.6,1670.0816 L 3897.6,1902.8816 L 3873.6,1905.2816 L 3873.6,1907.6816 L 3856.8,1910.0816 L 3856.8,1917.2816 L 3854.4,1919.6816 L 3854.4,1922.0816 L 3847.2,1926.8816 L 3847.2,1962.8816 L 3842.4,1965.2816 L 3842.4,1967.6816 L 3811.2,1970.0816 L 3811.2,1974.8816 L 3808.8,1977.2816 L 3808.8,2010.8816 L 3806.4,2013.2816 L 3806.4,2073.2816 L 3804,2075.6816 L 3804,2087.6816 L 3806.4,2090.0816 L 3804,2094.8816 L 3804,2099.6816 L 3801.6,2102.0816 L 3801.6,2174.0816 L 3796.8,2176.4816 L 3796.8,2236.4816 L 3799.2,2238.8816 L 3799.2,2243.6816 L 3796.8,2246.0816 L 3784.8,2248.4816 L 3784.8,2253.2816 L 3744,2255.6816 L 3744,2279.6816 L 3741.6,2282.0816 L 3741.6,2289.2816 L 3674.4,2291.6816 L 3674.4,2344.4816 L 3660,2346.8816 L 3660,2382.8816 L 3648,2385.2816 L 3648,2392.4816 L 3636,2394.8816 L 3636,2402.0816 L 3628.8,2404.4816 L 3628.8,2442.8816 L 3619.2,2445.2816 L 3619.2,2471.6816 L 3597.6,2474.0816 L 3597.6,2481.2816 L 3595.2,2483.6816 L 3595.2,2507.6816 L 3585.6,2510.0816 L 3585.6,2538.8816 L 3580.8,2541.2816 L 3578.4,2543.6816 L 3568.8,2546.0816 L 3568.8,2553.2816 L 3566.4,2555.6816 L 3566.4,2572.4816 L 3525.6,2574.8816 L 3516,2577.2816 L 3516,2589.2816 L 3513.6,2591.6816 L 3513.6,2594.0816 L 3501.6,2596.4816 L 3501.6,2606.0816 L 3487.2,2608.4816 L 3484.8,2610.8816 L 3484.8,2625.2816 L 3480,2627.6816 L 3480,2630.0816 L 3475.2,2632.4816 L 3475.2,2642.0816 L 3472.8,2644.4816 L 3470.4,2646.8816 L 3465.6,2649.2816 L 3465.6,2651.6816 L 3456,2654.0816 L 3444,2656.4816 L 3444,2661.2816 L 3439.2,2663.6816 L 3439.2,2680.4816 L 3429.6,2682.8816 L 3429.6,2694.8816 L 3420,2697.2816 L 3420,2702.0816 L 3408,2706.8816 L 3408,2718.8816 L 3405.6,2721.2816 L 3405.6,2726.0816 L 3403.2,2728.4816 L 3403.2,2742.8816 L 3372,2745.2816 L 3372,2754.8816 L 3364.8,2757.2816 L 3360,2759.6816 L 3360,2810.0816 L 3343.2,2812.4816 L 3343.2,2826.8816 L 3324,2829.2816 L 3321.6,2831.6816 L 3321.6,2848.4816 L 3314.4,2850.8816 L 3314.4,2858.0816 L 3312,2860.4816 L 3312,2865.2816 L 3304.8,2867.6816 L 3304.8,2879.6816 L 3302.4,2882.0816 L 3302.4,2896.4816 L 3295.2,2898.8816 L 3297.6,2901.2816 L 3297.6,2915.6816 L 3292.8,2918.0816 L 3292.8,2932.4816 L 3288,2934.8816 L 3288,2937.2816 L 3285.6,2939.6816 L 3285.6,2968.4816 L 3283.2,2970.8816 L 3283.2,2978.0816 L 3232.8,2980.4816 L 3232.8,2987.6816 L 3208.8,2990.0816 L 3208.8,3014.0816 L 3187.2,3016.4816 L 3187.2,3021.2816 L 3177.6,3023.6816 L 3156,3026.0816 L 3156,3028.4816 L 3151.2,3030.8816 L 3151.2,3040.4816 L 3129.6,3045.2816 L 3129.6,3047.6816 L 3127.2,3050.0816 L 3127.2,3064.4816 L 3062.4,3066.8816 L 3062.4,3074.0816 L 3057.6,3076.4816 L 3057.6,3081.2816 L 3036,3083.6816 L 3033.6,3086.0816 L 3033.6,3117.2816 L 3016.8,3119.6816 L 3016.8,3122.0816 L 3014.4,3124.4816 L 3014.4,3150.8816 L 2992.8,3153.2816 L 2992.8,3155.6816 L 2990.4,3158.0816 L 2990.4,3174.8816 L 2985.6,3179.6816 L 2976,3182.0816 L 2976,3189.2816 L 2949.6,3191.6816 L 2949.6,3222.8816 L 2942.4,3225.2816 L 2940,3227.6816 L 2920.8,3230.0816 L 2920.8,3239.6816 L 2889.6,3242.0816 L 2889.6,3246.8816 L 2870.4,3249.2816 L 2870.4,3282.8816 L 2820,3285.2816 L 2820,3294.8816 L 2815.2,3297.2816 L 2791.2,3299.6816 L 2791.2,3311.6816 L 2784,3316.4816 L 2784,3352.4816 L 2767.2,3354.8816 L 2762.4,3357.2816 L 2762.4,3393.2816 L 2750.4,3395.6816 L 2750.4,3400.4816 L 2745.6,3402.8816 L 2738.4,3405.2816 L 2738.4,3426.8816 L 2695.2,3429.2816 L 2695.2,3455.6816 L 2688,3458.0816 L 2688,3498.8816 L 2666.4,3501.2816 L 2666.4,3530.0816 L 2661.6,3532.4816 L 2661.6,3554.0816 L 2606.4,3556.4816 L 2606.4,3573.2816 L 2604,3575.6816 L 2604,3580.4816 L 2601.6,3582.8816 L 2601.6,3599.6816 L 2596.8,3602.0816 L 2596.8,3616.4816 L 2572.8,3621.2816 L 2572.8,3635.6816 L 2524.8,3638.0816 L 2517.6,3640.4816 L 2517.6,3652.4816 L 2512.8,3657.2816 L 2512.8,3659.6816 L 2500.8,3662.0816 L 2479.2,3664.4816 L 2479.2,3671.6816 L 2450.4,3674.0816 L 2450.4,3693.2816 L 2438.4,3695.6816 L 2438.4,3710.0816 L 2404.8,3712.4816 L 2400,3714.8816 L 2395.2,3717.2816 L 2392.8,3719.6816 L 2392.8,3734.0816 L 2390.4,3736.4816 L 2390.4,3782.0816 L 2380.8,3784.4816 L 2354.4,3786.8816 L 2354.4,3798.8816 L 2304,3801.2816 L 2304,3854.0816 L 2301.6,3858.8816 L 2301.6,3863.6816 L 2280,3866.0816 L 2277.6,3868.4816 L 2277.6,3878.0816 L 2275.2,3880.4816 L 2275.2,3882.8816 L 2272.8,3885.2816 L 2272.8,3897.2816 L 2260.8,3899.6816 L 2246.4,3902.0816 L 2246.4,3909.2816 L 2253.6,3911.6816 L 2241.6,3914.0816 L 2234.4,3916.4816 L 2232,3918.8816 L 2232,3935.6816 L 2229.6,3938.0816 L 2222.4,3940.4816 L 2222.4,3945.2816 L 2215.2,3947.6816 L 2215.2,3954.8816 L 2212.8,3957.2816 L 2212.8,3959.6816 L 2208,3964.4816 L 2205.6,3966.8816 L 2196,3969.2816 L 2196,3998.0816 L 2176.8,4000.4816 L 2176.8,4034.0816 L 2174.4,4036.4816 L 2174.4,4053.2816 L 2172,4055.6816 L 2152.8,4058.0816 L 2140.8,4062.8816 L 2140.8,4077.2816 L 2131.2,4079.6816 L 2131.2,4125.2816 L 2124,4130.0816 L 2124,4142.0816 L 2114.4,4144.4816 L 2083.2,4146.8816 L 2097.6,4149.2816 L 2097.6,4166.0816 L 2095.2,4168.4816 L 2095.2,4170.8816 L 2083.2,4173.2816 L 2083.2,4180.4816 L 2049.6,4182.8816 L 2049.6,4204.4816 L 2052,4206.8816 L 2052,4216.4816 L 2047.2,4218.8816 L 2047.2,4223.6816 L 2032.8,4226.0816 L 2030.4,4228.4816 L 2030.4,4271.6816 L 2004,4274.0816 L 2004,4288.4816 L 2001.6,4290.8816 L 2001.6,4295.6816 L 1987.2,4300.4816 L 1987.2,4307.6816 L 1972.8,4310.0816 L 1972.8,4341.2816 L 1965.6,4343.6816 L 1965.6,4346.0816 L 1960.8,4348.4816 L 1960.8,4353.2816 L 1956,4355.6816 L 1956,4370.0816 L 1951.2,4372.4816 L 1951.2,4374.8816 L 1939.2,4377.2816 L 1939.2,4382.0816 L 1929.6,4384.4816 L 1924.8,4386.8816 L 1920,4389.2816 L 1920,4396.4816 L 1912.8,4398.8816 L 1912.8,4413.2816 L 1908,4415.6816 L 1908,4487.6816 L 1903.2,4490.0816 L 1903.2,4511.6816 L 1888.8,4514.0816 L 1886.4,4516.4816 L 1886.4,4578.8816 L 1884,4581.2816 L 1884,4658.0816 L 1860,4660.4816 L 1860,4674.8816 L 1857.6,4677.2816 L 1857.6,4761.2816 L 1776,4763.6816 L 1776,4780.4816 L 1764,4782.8816 L 1764,4792.4816 L 1718.4,4794.8816 L 1716,4797.2816 L 1716,4811.6816 L 1694.4,4814.0816 L 1694.4,4828.4816 L 1670.4,4830.8816 L 1651.2,4833.2816 L 1651.2,4835.6816 L 1644,4838.0816 L 1634.4,4840.4816 L 1634.4,4883.6816 L 1629.6,4886.0816 L 1629.6,4890.8816 L 1615.2,4893.2816 L 1615.2,4900.4816 L 1584,4902.8816 L 1586.4,4905.2816 L 1591.2,4907.6816 L 1593.6,4912.4816 L 3360,4912.4816 L 3360,4907.6816 L 3345.6,4905.2816 L 3343.2,4902.8816 L 3374.4,4900.4816 L 3374.4,4895.6816 L 3369.6,4893.2816 L 3379.2,4890.8816 L 3379.2,4886.0816 L 3384,4883.6816 L 3384,4840.4816 L 3388.8,4838.0816 L 3388.8,4833.2816 L 3408,4830.8816 L 3391.2,4828.4816 L 3391.2,4814.0816 L 3405.6,4811.6816 L 3405.6,4797.2816 L 3398.4,4794.8816 L 3434.4,4792.4816 L 3434.4,4763.6816 L 3405.6,4761.2816 L 3405.6,4754.0816 L 3398.4,4751.6816 L 3398.4,4677.2816 L 3403.2,4674.8816 L 3403.2,4581.2816 L 3405.6,4578.8816 L 3405.6,4516.4816 L 3408,4514.0816 L 3410.4,4511.6816 L 3410.4,4497.2816 L 3408,4494.8816 L 3408,4490.0816 L 3412.8,4487.6816 L 3412.8,4475.6816 L 3410.4,4473.2816 L 3410.4,4454.0816 L 3408,4451.6816 L 3408,4446.8816 L 3403.2,4444.4816 L 3403.2,4437.2816 L 3400.8,4434.8816 L 3400.8,4415.6816 L 3405.6,4413.2816 L 3405.6,4398.8816 L 3410.4,4396.4816 L 3412.8,4394.0816 L 3412.8,4389.2816 L 3417.6,4386.8816 L 3422.4,4384.4816 L 3415.2,4382.0816 L 3415.2,4379.6816 L 3408,4377.2816 L 3410.4,4374.8816 L 3410.4,4372.4816 L 3417.6,4370.0816 L 3417.6,4355.6816 L 3422.4,4353.2816 L 3422.4,4348.4816 L 3405.6,4346.0816 L 3405.6,4343.6816 L 3412.8,4341.2816 L 3412.8,4329.2816 L 3410.4,4326.8816 L 3410.4,4310.0816 L 3424.8,4307.6816 L 3424.8,4300.4816 L 3422.4,4295.6816 L 3424.8,4293.2816 L 3424.8,4274.0816 L 3427.2,4271.6816 L 3427.2,4262.0816 L 3424.8,4259.6816 L 3424.8,4226.0816 L 3436.8,4223.6816 L 3436.8,4221.2816 L 3427.2,4218.8816 L 3432,4216.4816 L 3432,4206.8816 L 3424.8,4204.4816 L 3424.8,4182.8816 L 3422.4,4180.4816 L 3422.4,4173.2816 L 3432,4170.8816 L 3432,4168.4816 L 3434.4,4166.0816 L 3434.4,4151.6816 L 3429.6,4149.2816 L 3424.8,4146.8816 L 3400.8,4144.4816 L 3408,4142.0816 L 3408,4130.0816 L 3405.6,4125.2816 L 3405.6,4122.8816 L 3403.2,4120.4816 L 3403.2,4079.6816 L 3410.4,4077.2816 L 3410.4,4062.8816 L 3391.2,4058.0816 L 3393.6,4055.6816 L 3396,4053.2816 L 3396,4038.8816 L 3393.6,4036.4816 L 3393.6,4000.4816 L 3408,3998.0816 L 3408,3969.2816 L 3415.2,3966.8816 L 3420,3964.4816 L 3424.8,3959.6816 L 3424.8,3947.6816 L 3432,3945.2816 L 3432,3940.4816 L 3436.8,3938.0816 L 3439.2,3935.6816 L 3439.2,3921.2816 L 3432,3918.8816 L 3434.4,3916.4816 L 3417.6,3914.0816 L 3429.6,3911.6816 L 3415.2,3909.2816 L 3408,3906.8816 L 3408,3902.0816 L 3391.2,3899.6816 L 3376.8,3897.2816 L 3376.8,3880.4816 L 3374.4,3878.0816 L 3372,3875.6816 L 3372,3866.0816 L 3386.4,3863.6816 L 3386.4,3861.2816 L 3384,3858.8816 L 3379.2,3854.0816 L 3379.2,3827.6816 L 3333.6,3825.2816 L 3333.6,3808.4816 L 3326.4,3806.0816 L 3326.4,3801.2816 L 3376.8,3798.8816 L 3376.8,3786.8816 L 3400.8,3784.4816 L 3408,3782.0816 L 3408,3731.6816 L 3396,3729.2816 L 3396,3719.6816 L 3398.4,3717.2816 L 3374.4,3714.8816 L 3360,3712.4816 L 3374.4,3710.0816 L 3374.4,3700.4816 L 3369.6,3698.0816 L 3369.6,3695.6816 L 3381.6,3693.2816 L 3381.6,3674.0816 L 3393.6,3671.6816 L 3393.6,3662.0816 L 3405.6,3659.6816 L 3405.6,3657.2816 L 3408,3652.4816 L 3408,3640.4816 L 3415.2,3638.0816 L 3463.2,3635.6816 L 3463.2,3630.8816 L 3441.6,3628.4816 L 3417.6,3626.0816 L 3417.6,3621.2816 L 3441.6,3616.4816 L 3441.6,3592.4816 L 3432,3590.0816 L 3427.2,3585.2816 L 3427.2,3582.8816 L 3410.4,3580.4816 L 3410.4,3575.6816 L 3412.8,3573.2816 L 3412.8,3556.4816 L 3400.8,3554.0816 L 3400.8,3549.2816 L 3398.4,3546.8816 L 3398.4,3534.8816 L 3393.6,3532.4816 L 3398.4,3530.0816 L 3398.4,3501.2816 L 3403.2,3498.8816 L 3403.2,3460.4816 L 3400.8,3458.0816 L 3405.6,3455.6816 L 3405.6,3429.2816 L 3424.8,3426.8816 L 3424.8,3405.2816 L 3429.6,3402.8816 L 3427.2,3400.4816 L 3427.2,3395.6816 L 3441.6,3393.2816 L 3441.6,3388.4816 L 3439.2,3386.0816 L 3439.2,3357.2816 L 3444,3354.8816 L 3460.8,3352.4816 L 3453.6,3347.6816 L 3453.6,3316.4816 L 3456,3311.6816 L 3456,3299.6816 L 3468,3297.2816 L 3470.4,3294.8816 L 3470.4,3285.2816 L 3487.2,3282.8816 L 3487.2,3261.2816 L 3482.4,3258.8816 L 3482.4,3249.2816 L 3489.6,3246.8816 L 3489.6,3242.0816 L 3520.8,3239.6816 L 3520.8,3230.0816 L 3530.4,3227.6816 L 3532.8,3225.2816 L 3540,3222.8816 L 3540,3191.6816 L 3559.2,3189.2816 L 3559.2,3182.0816 L 3568.8,3179.6816 L 3573.6,3174.8816 L 3573.6,3158.0816 L 3576,3155.6816 L 3576,3153.2816 L 3585.6,3150.8816 L 3585.6,3124.4816 L 3588,3122.0816 L 3588,3119.6816 L 3600,3117.2816 L 3600,3095.6816 L 3592.8,3093.2816 L 3592.8,3086.0816 L 3595.2,3083.6816 L 3614.4,3081.2816 L 3614.4,3066.8816 L 3638.4,3064.4816 L 3638.4,3052.4816 L 3636,3050.0816 L 3626.4,3047.6816 L 3626.4,3045.2816 L 3648,3040.4816 L 3648,3030.8816 L 3652.8,3028.4816 L 3652.8,3026.0816 L 3664.8,3023.6816 L 3674.4,3021.2816 L 3674.4,3014.0816 L 3672,3009.2816 L 3672,2990.0816 L 3664.8,2987.6816 L 3664.8,2980.4816 L 3715.2,2978.0816 L 3715.2,2970.8816 L 3700.8,2968.4816 L 3698.4,2966.0816 L 3698.4,2961.2816 L 3693.6,2958.8816 L 3693.6,2939.6816 L 3696,2937.2816 L 3696,2934.8816 L 3698.4,2932.4816 L 3698.4,2918.0816 L 3703.2,2915.6816 L 3703.2,2906.0816 L 3700.8,2903.6816 L 3700.8,2901.2816 L 3681.6,2898.8816 L 3691.2,2896.4816 L 3691.2,2884.4816 L 3686.4,2882.0816 L 3688.8,2879.6816 L 3688.8,2867.6816 L 3691.2,2865.2816 L 3691.2,2860.4816 L 3696,2858.0816 L 3696,2853.2816 L 3684,2850.8816 L 3691.2,2848.4816 L 3691.2,2846.0816 L 3688.8,2843.6816 L 3688.8,2831.6816 L 3681.6,2829.2816 L 3700.8,2826.8816 L 3700.8,2812.4816 L 3717.6,2810.0816 L 3717.6,2790.8816 L 3708,2788.4816 L 3708,2759.6816 L 3712.8,2757.2816 L 3717.6,2754.8816 L 3717.6,2745.2816 L 3744,2742.8816 L 3744,2706.8816 L 3753.6,2702.0816 L 3753.6,2697.2816 L 3758.4,2694.8816 L 3758.4,2663.6816 L 3765.6,2661.2816 L 3765.6,2656.4816 L 3763.2,2654.0816 L 3748.8,2651.6816 L 3748.8,2649.2816 L 3756,2646.8816 L 3758.4,2644.4816 L 3758.4,2632.4816 L 3763.2,2630.0816 L 3763.2,2627.6816 L 3765.6,2625.2816 L 3765.6,2615.6816 L 3763.2,2613.2816 L 3763.2,2610.8816 L 3768,2608.4816 L 3777.6,2606.0816 L 3777.6,2596.4816 L 3756,2594.0816 L 3756,2591.6816 L 3758.4,2589.2816 L 3756,2586.8816 L 3756,2577.2816 L 3765.6,2574.8816 L 3806.4,2572.4816 L 3806.4,2555.6816 L 3808.8,2553.2816 L 3808.8,2546.0816 L 3818.4,2543.6816 L 3820.8,2541.2816 L 3823.2,2538.8816 L 3820.8,2536.4816 L 3820.8,2510.0816 L 3828,2507.6816 L 3828,2474.0816 L 3852,2471.6816 L 3852,2445.2816 L 3856.8,2442.8816 L 3856.8,2404.4816 L 3866.4,2402.0816 L 3866.4,2394.8816 L 3868.8,2392.4816 L 3868.8,2385.2816 L 3873.6,2382.8816 L 3873.6,2346.8816 L 3888,2344.4816 L 3888,2291.6816 L 3924,2289.2816 L 3921.6,2286.8816 L 3921.6,2282.0816 L 3924,2279.6816 L 3924,2255.6816 L 3967.2,2253.2816 L 3967.2,2248.4816 L 3979.2,2246.0816 L 3981.6,2243.6816 L 3981.6,2238.8816 L 3967.2,2236.4816 L 3955.2,2234.0816 L 3955.2,2176.4816 L 3960,2174.0816 L 3960,2157.2816 L 3962.4,2154.8816 L 3960,2152.4816 L 3960,2142.8816 L 3955.2,2140.4816 L 3955.2,2126.0816 L 3950.4,2123.6816 L 3950.4,2102.0816 L 3952.8,2099.6816 L 3952.8,2094.8816 L 3955.2,2090.0816 L 3943.2,2087.6816 L 3943.2,2075.6816 L 3933.6,2073.2816 L 3933.6,2054.0816 L 3924,2051.6816 L 3924,2013.2816 L 3928.8,2010.8816 L 3928.8,1977.2816 L 3931.2,1974.8816 L 3931.2,1970.0816 L 3962.4,1967.6816 L 3950.4,1965.2816 L 3943.2,1962.8816 L 3943.2,1948.4816 L 3936,1946.0816 L 3936,1926.8816 L 3943.2,1922.0816 L 3943.2,1919.6816 L 3938.4,1917.2816 L 3938.4,1910.0816 L 3950.4,1907.6816 L 3950.4,1905.2816 L 3974.4,1902.8816 L 3974.4,1763.6816 L 3976.8,1761.2816 L 3976.8,1722.8816 L 3967.2,1718.0816 L 3967.2,1670.0816 L 3969.6,1667.6816 L 3969.6,1638.8816 L 3957.6,1636.4816 L 3957.6,1494.8816 L 3936,1492.4816 L 3936,1451.6816 L 3933.6,1446.8816 L 3933.6,1432.4816 L 3936,1430.0816 L 3936,1418.0816 L 3960,1413.2816 L 3960,1406.0816 L 3957.6,1403.6816 L 3960,1401.2816 L 3964.8,1398.8816 L 3967.2,1396.4816 L 4015.2,1394.0816 L 4015.1687,1389.5004"
             style="fill:none;stroke:#000000;stroke-width:2.4000001;stroke-linecap:butt;stroke-linejoin:miter;stroke-miterlimit:10;stroke-dasharray:none;stroke-opacity:1"
             id="path1093"
             sodipodi:nodetypes="cccccccccccccccccccccccccccccccccccccccccccccccccccccccccccccccccccccccccccccccccccccccccccccccccccccccccccccccccccccccccccccccccccccccccccccccccccccccccccccccccccccccccccccccccccccccccccccccccccccccccccccccccccccccccccccccccccccccccccccccccccccccccccccccccccccccccccccccccccccccccccccccccccccccccccccccccccccccccccccccccccccccccccccccccccccccccccccccccccccccccccccccccccccccccccccccccccccccccccccccccccccccccccccccccccccccccccccccccccccccccccccccccccccccccccccccccccccccccccccccccccccccccccccccccccccccccccccccccccccccccccccccccccccccccccccccccccccccccccccccccccccccccccccccccccccccccccccccccccccccccccccccccccccccccccccccccccccccccccccccccccccccccccccccccccccccccccccccccccccccccccccccccccccccccccccccccccccccccccccccccccccccccccccccccccccccccccccccccccccccccccc" /><path
             d="M 2678.4,5184 L 2748.0016,5184 L 2748.0016,5253.6016 L 2678.4,5253.6016 L 2678.4,5184 z"
             style="fill:#ff420e;fill-opacity:1;fill-rule:evenodd;stroke:none"
             id="path1095" /><path
             d="M 2748,5220 L 2748,5184 L 2678.4,5184 L 2678.4,5253.6 L 2748,5253.6 L 2748,5220"
             style="fill:none;stroke:#000000;stroke-opacity:1;stroke-width:2.4;stroke-linecap:butt;stroke-linejoin:miter;stroke-miterlimit:10;stroke-dasharray:none"
             id="path1097" /><path
             d="M 2558.4,5184 L 2628.0016,5184 L 2628.0016,5253.6016 L 2558.4,5253.6016 L 2558.4,5184 z"
             style="fill:#ffd420;fill-opacity:1;fill-rule:evenodd;stroke:none"
             id="path1099" /><path
             d="M 2628,5220 L 2628,5184 L 2558.4,5184 L 2558.4,5253.6 L 2628,5253.6 L 2628,5220"
             style="fill:none;stroke:#000000;stroke-opacity:1;stroke-width:2.4;stroke-linecap:butt;stroke-linejoin:miter;stroke-miterlimit:10;stroke-dasharray:none"
             id="path1101" /><g
             id="g1103"
             transform="scale(10,10)"><text
               transform="matrix(0,1,1,0,263.04,528.96)"
               id="text1105"><tspan
                 style="fill:#000000;fill-opacity:1;fill-rule:nonzero;stroke:none;font-family:Arial;font-variant:normal;font-weight:normal;font-size:9.36;writing-mode:lr;-inkscape-font-specification:Arial"
                 x="0 6.72002941 11.52003865 19.20002442 24.00003366 25.92004391 30.72005315 33.12004887"
                 y="0"
                 sodipodi:role="line"
                 id="tspan1107">만만만만</tspan><tspan
                 style="fill:#000000;fill-opacity:1;fill-rule:nonzero;stroke:none;font-family:Arial;font-variant:normal;font-weight:normal;font-size:9.36;writing-mode:lr;-inkscape-font-specification:Arial"
                 x="0 2.39999573 7.20000497 9.6000007 15.6000209 18.72002591 23.52003515 28.32004439 31.20001062 36.00001986 40.8000394"
                 y="12.2402"
                 sodipodi:role="line"
                 id="tspan1109">만만만만만</tspan></text>
</g></g></g></g><text
       xml:space="preserve"
       style="font-size:10.86617756px;font-style:normal;font-weight:normal;fill:#000000;fill-opacity:1;stroke:none;stroke-width:1px;stroke-linecap:butt;stroke-linejoin:miter;stroke-opacity:1;font-family:Bitstream Vera Sans"
       x="531.34875"
       y="263.43979"
       id="text3482"
       transform="matrix(0,1,1,0,0,0)"><tspan
         sodipodi:role="line"
         id="tspan3484"
         x="531.34875"
         y="263.43979">Complete</tspan></text>
<text
       transform="matrix(0,1,1,0,0,0)"
       id="text3486"
       y="274.98871"
       x="531.34875"
       style="font-size:10.86617756px;font-style:normal;font-weight:normal;fill:#000000;fill-opacity:1;stroke:none;stroke-width:1px;stroke-linecap:butt;stroke-linejoin:miter;stroke-opacity:1;font-family:Bitstream Vera Sans"
       xml:space="preserve"><tspan
         y="274.98871"
         x="531.34875"
         id="tspan3488"
         sodipodi:role="line">In Progress</tspan></text>
<text
       xml:space="preserve"
       style="font-size:7.97512484px;font-style:normal;font-weight:normal;fill:#000000;fill-opacity:1;stroke:none;stroke-width:1px;stroke-linecap:butt;stroke-linejoin:miter;stroke-opacity:1;font-family:Bitstream Vera Sans"
       x="134.79268"
       y="419.13525"
       id="text4280"
       transform="matrix(0,1,1,0,0,0)"><tspan
         sodipodi:role="line"
         id="tspan4282"
         x="134.79268"
         y="419.13525">2/05</tspan></text>
<text
       transform="matrix(0,1,1,0,0,0)"
       id="text4284"
       y="410.08307"
       x="135.86049"
       style="font-size:7.97512484px;font-style:normal;font-weight:normal;fill:#000000;fill-opacity:1;stroke:none;stroke-width:1px;stroke-linecap:butt;stroke-linejoin:miter;stroke-opacity:1;font-family:Bitstream Vera Sans"
       xml:space="preserve"><tspan
         y="410.08307"
         x="135.86049"
         id="tspan4286"
         sodipodi:role="line"
         style="text-align:end;text-anchor:end">0</tspan></text>
<text
       xml:space="preserve"
       style="font-size:7.97512484px;font-style:normal;font-weight:normal;fill:#000000;fill-opacity:1;stroke:none;stroke-width:1px;stroke-linecap:butt;stroke-linejoin:miter;stroke-opacity:1;font-family:Bitstream Vera Sans"
       x="135.86049"
       y="368.48309"
       id="text4296"
       transform="matrix(0,1,1,0,0,0)"><tspan
         style="text-align:end;text-anchor:end"
         sodipodi:role="line"
         id="tspan4298"
         x="135.86049"
         y="368.48309">200</tspan></text>
<text
       transform="matrix(0,1,1,0,0,0)"
       id="text4300"
       y="326.88306"
       x="135.86049"
       style="font-size:7.97512484px;font-style:normal;font-weight:normal;fill:#000000;fill-opacity:1;stroke:none;stroke-width:1px;stroke-linecap:butt;stroke-linejoin:miter;stroke-opacity:1;font-family:Bitstream Vera Sans"
       xml:space="preserve"><tspan
         y="326.88306"
         x="135.86049"
         id="tspan4302"
         sodipodi:role="line"
         style="text-align:end;text-anchor:end">400</tspan></text>
<text
       xml:space="preserve"
       style="font-size:7.97512484px;font-style:normal;font-weight:normal;fill:#000000;fill-opacity:1;stroke:none;stroke-width:1px;stroke-linecap:butt;stroke-linejoin:miter;stroke-opacity:1;font-family:Bitstream Vera Sans"
       x="135.86049"
       y="243.5314"
       id="text4304"
       transform="matrix(0,1,1,0,0,0)"><tspan
         style="text-align:end;text-anchor:end"
         sodipodi:role="line"
         id="tspan4306"
         x="135.86049"
         y="243.5314">800</tspan></text>
<text
       transform="matrix(0,1,1,0,0,0)"
       id="text4308"
       y="201.41937"
       x="135.86049"
       style="font-size:7.97512484px;font-style:normal;font-weight:normal;fill:#000000;fill-opacity:1;stroke:none;stroke-width:1px;stroke-linecap:butt;stroke-linejoin:miter;stroke-opacity:1;font-family:Bitstream Vera Sans"
       xml:space="preserve"><tspan
         y="201.41937"
         x="135.86049"
         id="tspan4310"
         sodipodi:role="line"
         style="text-align:end;text-anchor:end">1000</tspan></text>
<text
       xml:space="preserve"
       style="font-size:7.97512484px;font-style:normal;font-weight:normal;fill:#000000;fill-opacity:1;stroke:none;stroke-width:1px;stroke-linecap:butt;stroke-linejoin:miter;stroke-opacity:1;font-family:Bitstream Vera Sans"
       x="135.86049"
       y="159.64871"
       id="text4312"
       transform="matrix(0,1,1,0,0,0)"><tspan
         style="text-align:end;text-anchor:end"
         sodipodi:role="line"
         id="tspan4314"
         x="135.86049"
         y="159.64871">1200</tspan></text>
<text
       transform="matrix(0,1,1,0,0,0)"
       id="text4316"
       y="118.04868"
       x="135.86049"
       style="font-size:7.97512484px;font-style:normal;font-weight:normal;fill:#000000;fill-opacity:1;stroke:none;stroke-width:1px;stroke-linecap:butt;stroke-linejoin:miter;stroke-opacity:1;font-family:Bitstream Vera Sans"
       xml:space="preserve"><tspan
         y="118.04868"
         x="135.86049"
         id="tspan4318"
         sodipodi:role="line"
         style="text-align:end;text-anchor:end">1400</tspan></text>
<text
       transform="matrix(0,1,1,0,0,0)"
       id="text4320"
       y="285.13144"
       x="135.86049"
       style="font-size:7.97512484px;font-style:normal;font-weight:normal;fill:#000000;fill-opacity:1;stroke:none;stroke-width:1px;stroke-linecap:butt;stroke-linejoin:miter;stroke-opacity:1;font-family:Bitstream Vera Sans"
       xml:space="preserve"><tspan
         y="285.13144"
         x="135.86049"
         id="tspan4322"
         sodipodi:role="line"
         style="text-align:end;text-anchor:end">600</tspan></text>
<path
       d="M 411.53005,139.12727 L 407.21005,139.12727"
       style="fill:none;stroke:#000000;stroke-width:0.41649491;stroke-linecap:butt;stroke-linejoin:miter;stroke-miterlimit:10;stroke-dasharray:none;stroke-opacity:1"
       id="path135" /><text
       transform="matrix(0,1,1,0,0,0)"
       id="text4325"
       y="419.13525"
       x="175.1053"
       style="font-size:7.97512484px;font-style:normal;font-weight:normal;fill:#000000;fill-opacity:1;stroke:none;stroke-width:1px;stroke-linecap:butt;stroke-linejoin:miter;stroke-opacity:1;font-family:Bitstream Vera Sans"
       xml:space="preserve"><tspan
         style="text-align:center;text-anchor:middle"
         y="419.13525"
         x="175.1053"
         id="tspan4327"
         sodipodi:role="line">12/05</tspan></text>
<path
       id="path4329"
       style="fill:none;stroke:#000000;stroke-width:0.41649491;stroke-linecap:butt;stroke-linejoin:miter;stroke-miterlimit:10;stroke-dasharray:none;stroke-opacity:1"
       d="M 411.53005,175.04688 L 407.21005,175.04688" /><text
       xml:space="preserve"
       style="font-size:7.97512484px;font-style:normal;font-weight:normal;fill:#000000;fill-opacity:1;stroke:none;stroke-width:1px;stroke-linecap:butt;stroke-linejoin:miter;stroke-opacity:1;font-family:Bitstream Vera Sans"
       x="227.90533"
       y="419.13525"
       id="text4344"
       transform="matrix(0,1,1,0,0,0)"><tspan
         sodipodi:role="line"
         id="tspan4346"
         x="227.90533"
         y="419.13525"
         style="text-align:center;text-anchor:middle">6/06</tspan></text>
<path
       d="M 411.53005,228.13318 L 407.21005,228.13318"
       style="fill:none;stroke:#000000;stroke-width:0.41649491;stroke-linecap:butt;stroke-linejoin:miter;stroke-miterlimit:10;stroke-dasharray:none;stroke-opacity:1"
       id="path4348" /><text
       transform="matrix(0,1,1,0,0,0)"
       id="text4352"
       y="419.13525"
       x="282.30527"
       style="font-size:7.97512484px;font-style:normal;font-weight:normal;fill:#000000;fill-opacity:1;stroke:none;stroke-width:1px;stroke-linecap:butt;stroke-linejoin:miter;stroke-opacity:1;font-family:Bitstream Vera Sans"
       xml:space="preserve"><tspan
         style="text-align:center;text-anchor:middle"
         y="419.13525"
         x="282.30527"
         id="tspan4354"
         sodipodi:role="line">12/06</tspan></text>
<text
       xml:space="preserve"
       style="font-size:7.97512484px;font-style:normal;font-weight:normal;fill:#000000;fill-opacity:1;stroke:none;stroke-width:1px;stroke-linecap:butt;stroke-linejoin:miter;stroke-opacity:1;font-family:Bitstream Vera Sans"
       x="335.10529"
       y="419.13525"
       id="text4360"
       transform="matrix(0,1,1,0,0,0)"><tspan
         sodipodi:role="line"
         id="tspan4362"
         x="335.10529"
         y="419.13525"
         style="text-align:center;text-anchor:middle">6/07</tspan></text>
<path
       d="M 411.53005,334.30577 L 407.21005,334.30577"
       style="fill:none;stroke:#000000;stroke-width:0.41649491;stroke-linecap:butt;stroke-linejoin:miter;stroke-miterlimit:10;stroke-dasharray:none;stroke-opacity:1"
       id="path4364" /><path
       id="path4380"
       style="fill:none;stroke:#000000;stroke-width:0.41649491;stroke-linecap:butt;stroke-linejoin:miter;stroke-miterlimit:10;stroke-dasharray:none;stroke-opacity:1"
       d="M 411.53005,281.21948 L 407.21005,281.21948" /><path
       id="path4386"
       style="fill:#ffffff;stroke:#ffffff;stroke-width:0.41649491;stroke-linecap:butt;stroke-linejoin:miter;stroke-miterlimit:10;stroke-dasharray:none;stroke-opacity:1"
       d="M 411.95431,493.56467 L 407.63431,493.56467" /><text
       transform="matrix(0,1,1,0,0,0)"
       id="text4388"
       y="419.13525"
       x="389.50531"
       style="font-size:7.97512484px;font-style:normal;font-weight:normal;fill:#000000;fill-opacity:1;stroke:none;stroke-width:1px;stroke-linecap:butt;stroke-linejoin:miter;stroke-opacity:1;font-family:Bitstream Vera Sans"
       xml:space="preserve"><tspan
         style="text-align:center;text-anchor:middle"
         y="419.13525"
         x="389.50531"
         id="tspan4390"
         sodipodi:role="line">12/07</tspan></text>
<path
       id="path4392"
       style="fill:none;stroke:#000000;stroke-width:0.41649491;stroke-linecap:butt;stroke-linejoin:miter;stroke-miterlimit:10;stroke-dasharray:none;stroke-opacity:1"
       d="M 411.53005,387.39207 L 407.21005,387.39207" /><text
       xml:space="preserve"
       style="font-size:7.97512484px;font-style:normal;font-weight:normal;fill:#000000;fill-opacity:1;stroke:none;stroke-width:1px;stroke-linecap:butt;stroke-linejoin:miter;stroke-opacity:1;font-family:Bitstream Vera Sans"
       x="440.70526"
       y="419.13525"
       id="text4394"
       transform="matrix(0,1,1,0,0,0)"><tspan
         sodipodi:role="line"
         id="tspan4396"
         x="440.70526"
         y="419.13525"
         style="text-align:center;text-anchor:middle">6/08</tspan></text>
<path
       d="M 411.53005,440.47837 L 407.21005,440.47837"
       style="fill:none;stroke:#000000;stroke-width:0.41649491;stroke-linecap:butt;stroke-linejoin:miter;stroke-miterlimit:10;stroke-dasharray:none;stroke-opacity:1"
       id="path4398" /><text
       transform="matrix(0,1,1,0,0,0)"
       id="text4400"
       y="441.83975"
       x="296.14877"
       style="font-size:10.86617756px;font-style:normal;font-weight:normal;fill:#000000;fill-opacity:1;stroke:none;stroke-width:1px;stroke-linecap:butt;stroke-linejoin:miter;stroke-opacity:1;font-family:Bitstream Vera Sans"
       xml:space="preserve"><tspan
         y="441.83975"
         x="296.14877"
         id="tspan4402"
         sodipodi:role="line">Date</tspan></text>
<text
       xml:space="preserve"
       style="font-size:10.86617756px;font-style:normal;font-weight:normal;fill:#000000;fill-opacity:1;stroke:none;stroke-width:1px;stroke-linecap:butt;stroke-linejoin:miter;stroke-opacity:1;font-family:Bitstream Vera Sans"
       x="-311.29712"
       y="99.762192"
       id="text4404"
       transform="scale(-1,1)"><tspan
         sodipodi:role="line"
         id="tspan4406"
         x="-311.29712"
         y="99.762192">Clones Sequenced</tspan></text>
<text
       transform="matrix(0,1,1,0,0,0)"
       id="text4408"
       y="419.13525"
       x="477.46646"
       style="font-size:7.97512484px;font-style:normal;font-weight:normal;fill:#000000;fill-opacity:1;stroke:none;stroke-width:1px;stroke-linecap:butt;stroke-linejoin:miter;stroke-opacity:1;font-family:Bitstream Vera Sans"
       xml:space="preserve"><tspan
         y="419.13525"
         x="477.46646"
         id="tspan4410"
         sodipodi:role="line">11/08</tspan></text>
<path
       d="M 411.53005,489.96467 L 407.21005,489.96467"
       style="fill:none;stroke:#000000;stroke-width:0.41649491;stroke-linecap:butt;stroke-linejoin:miter;stroke-miterlimit:10;stroke-dasharray:none;stroke-opacity:1"
       id="path4412" /></g></svg>